# Blender 5.0.1
# www.blender.org
mtllib Untitled2.mtl
o Cylinder.010
v 0.059971 0.109680 0.010968
v 0.060222 0.138451 -0.004264
v 0.051620 0.160735 0.025047
v 0.035339 0.182252 0.051937
v -0.010906 0.194220 0.115395
v 0.012005 0.202175 0.075372
v -0.017485 0.219737 0.094452
v -0.051998 0.234264 0.108443
v -0.090208 0.245198 0.116809
v -0.130646 0.252118 0.119226
v -0.170100 0.230175 0.136968
v -0.171758 0.254758 0.115603
v -0.211965 0.253018 0.106079
v -0.249721 0.246963 0.091019
v -0.317520 0.202597 0.072718
v -0.283576 0.236827 0.071002
v -0.312227 0.223000 0.046799
v -0.334575 0.206011 0.019338
v -0.349761 0.186515 -0.010325
v -0.357200 0.165261 -0.041050
v -0.362976 0.120089 -0.049489
v -0.356607 0.143065 -0.071656
v -0.348005 0.120780 -0.100967
v -0.331724 0.099263 -0.127857
v -0.292099 0.035549 -0.153916
v -0.308390 0.079341 -0.151292
v -0.278900 0.061779 -0.170372
v -0.244387 0.047252 -0.184363
v -0.206177 0.036318 -0.192729
v -0.165739 0.029398 -0.195146
v -0.132905 -0.000407 -0.175488
v -0.124627 0.026757 -0.191523
v -0.084420 0.028498 -0.181999
v -0.046664 0.034552 -0.166939
v 0.014515 0.027171 -0.111238
v -0.012809 0.044688 -0.146923
v 0.015842 0.058516 -0.122719
v 0.038190 0.075504 -0.095258
v 0.053376 0.095000 -0.065595
v 0.038190 0.075504 -0.095258
v 0.053376 0.095000 -0.065595
v 0.060815 0.116255 -0.034870
v -0.130646 0.252118 0.119226
v -0.171758 0.254758 0.115603
v -0.356607 0.143065 -0.071656
v -0.348005 0.120780 -0.100967
v -0.084420 0.028498 -0.181999
v -0.046664 0.034552 -0.166939
v 0.012005 0.202175 0.075372
v -0.017485 0.219737 0.094452
v -0.312227 0.223000 0.046799
v -0.334575 0.206011 0.019338
v -0.244387 0.047252 -0.184363
v -0.206177 0.036318 -0.192729
v 0.060815 0.116255 -0.034870
v -0.211965 0.253018 0.106079
v -0.331724 0.099263 -0.127857
v -0.012809 0.044688 -0.146923
v -0.051998 0.234264 0.108443
v -0.349761 0.186515 -0.010325
v -0.165739 0.029398 -0.195146
v 0.060222 0.138451 -0.004264
v 0.051620 0.160735 0.025047
v -0.249721 0.246963 0.091019
v -0.308390 0.079341 -0.151292
v 0.015842 0.058516 -0.122719
v -0.090208 0.245198 0.116809
v -0.357200 0.165261 -0.041050
v -0.124627 0.026757 -0.191523
v 0.035339 0.182252 0.051937
v -0.283576 0.236827 0.071002
v -0.278900 0.061779 -0.170372
v -0.267946 0.070903 -0.161589
v -0.295043 0.087040 -0.144057
v -0.295043 0.087040 -0.144057
v -0.267946 0.070903 -0.161589
v 0.043656 0.141353 -0.008961
v 0.064829 0.136079 -0.024154
v 0.042166 0.190054 0.045837
v 0.035752 0.161829 0.017972
v -0.131722 0.245795 0.104508
v -0.094566 0.239437 0.102287
v -0.094566 0.239437 0.102287
v -0.131722 0.245795 0.104508
v -0.236233 0.057555 -0.174445
v -0.236233 0.057555 -0.174445
v -0.169499 0.248222 0.101179
v -0.169499 0.248222 0.101179
v -0.201124 0.047508 -0.182131
v -0.201124 0.047508 -0.182131
v -0.206442 0.246623 0.092427
v -0.206442 0.246623 0.092427
v -0.163968 0.041150 -0.184352
v -0.163968 0.041150 -0.184352
v -0.241135 0.241059 0.078590
v -0.241135 0.241059 0.078590
v -0.126192 0.038724 -0.181023
v -0.126192 0.038724 -0.181023
v -0.272242 0.231746 0.060198
v -0.272242 0.231746 0.060198
v -0.089248 0.040323 -0.172272
v -0.089248 0.040323 -0.172272
v -0.298568 0.219040 0.037958
v -0.298568 0.219040 0.037958
v -0.054556 0.045886 -0.158434
v -0.054556 0.045886 -0.158434
v -0.319103 0.203431 0.012726
v -0.319103 0.203431 0.012726
v -0.023449 0.055199 -0.140042
v -0.023449 0.055199 -0.140042
v -0.333056 0.185517 -0.014530
v -0.333056 0.185517 -0.014530
v 0.035752 0.161829 0.017972
v 0.043656 0.141353 -0.008961
v 0.002878 0.067905 -0.117803
v 0.002878 0.067905 -0.117803
v -0.339891 0.165987 -0.042761
v -0.339891 0.165987 -0.042761
v 0.020792 0.181600 0.042680
v 0.020792 0.181600 0.042680
v 0.023412 0.083515 -0.092570
v 0.023412 0.083515 -0.092570
v -0.339346 0.145593 -0.070884
v -0.339346 0.145593 -0.070884
v -0.000648 0.199906 0.064213
v -0.000648 0.199906 0.064213
v 0.037365 0.101428 -0.065315
v 0.037365 0.101428 -0.065315
v -0.331442 0.125116 -0.097816
v -0.331442 0.125116 -0.097816
v -0.027745 0.216042 0.081744
v -0.027745 0.216042 0.081744
v 0.044201 0.120958 -0.037083
v 0.044201 0.120958 -0.037083
v -0.316483 0.105345 -0.122524
v -0.316483 0.105345 -0.122524
v -0.059457 0.229391 0.094600
v -0.059457 0.229391 0.094600
v -0.025985 0.046721 -0.163755
v 0.041589 0.082109 -0.102498
v -0.356245 0.184455 -0.032227
v -0.354563 0.139879 -0.094126
v -0.031820 0.237120 0.097846
v -0.309447 0.086153 -0.159974
v -0.109572 0.259152 0.114786
v -0.205706 0.042586 -0.201159
v -0.192498 0.264480 0.106960
v -0.267842 0.252150 0.076866
v -0.101708 0.034209 -0.194323
v -0.325542 0.224237 0.028033
v -0.013270 0.229295 -0.037457
v -0.012160 0.172687 -0.115689
v -0.258318 0.182566 -0.145533
v -0.088429 0.274230 0.011310
v -0.212279 0.153567 -0.177573
v -0.167618 0.282305 0.008489
v -0.151023 0.137349 -0.189182
v -0.237893 0.267851 -0.023927
v -0.073923 0.140519 -0.171073
v -0.274565 0.225319 -0.089330
v 0.020641 0.566752 -0.368884
v 0.018276 0.561595 -0.312440
v -0.066988 0.658072 -0.391698
v -0.089341 0.654424 -0.403542
v -0.112561 0.485381 -0.287890
v -0.039212 0.642227 -0.399154
v -0.006089 0.619914 -0.392592
v -0.017542 0.537212 -0.269462
v -0.034841 0.501744 -0.284513
v 0.011808 0.613134 -0.348903
v -0.045100 0.662029 -0.364232
v -0.004904 0.626189 -0.302016
v -0.077289 0.513032 -0.258575
v -0.108344 0.501781 -0.268138
v -0.083672 0.673082 -0.357947
v -0.031873 0.559418 -0.251567
v -0.049977 0.649216 -0.287641
v -0.104145 0.547672 -0.243956
v -0.083382 0.621776 -0.250885
v -0.111258 0.667795 -0.313035
v -0.174350 0.614208 -0.283089
v -0.146862 0.587077 -0.255058
v -0.147471 0.532692 -0.263128
v -0.165944 0.653637 -0.342882
v -0.124437 0.663624 -0.379662
v -0.160611 0.500144 -0.295643
v -0.193489 0.539357 -0.300081
v -0.211274 0.585242 -0.360606
v -0.140988 0.635932 -0.416839
v -0.183301 0.615127 -0.400393
v -0.179351 0.496522 -0.354442
v -0.104060 0.640523 -0.421152
v -0.191488 0.541262 -0.400976
v -0.136934 0.474800 -0.322772
v -0.141610 0.478942 -0.389207
v -0.133869 0.577795 -0.448557
v -0.134450 0.522330 -0.438183
v -0.073156 0.637555 -0.421177
v -0.098310 0.471189 -0.308956
v -0.083254 0.475789 -0.403788
v -0.098926 0.617150 -0.439435
v -0.081508 0.463303 -0.349267
v -0.077403 0.565574 -0.453304
v -0.053753 0.522248 -0.435665
v -0.061450 0.617575 -0.433270
v -0.023109 0.602891 -0.421645
v -0.001892 0.528807 -0.401359
v -0.003995 0.495896 -0.346788
v -0.042289 0.478113 -0.319264
v -0.075368 0.484906 -0.286139
v -0.063823 0.369915 -0.175798
v -0.097051 0.383163 -0.148399
v -0.132660 0.387540 -0.148238
v -0.166701 0.377776 -0.162300
v -0.183359 0.358402 -0.194988
v -0.168559 0.335530 -0.224022
v -0.136590 0.326359 -0.239609
v -0.049796 0.246748 -0.147470
v -0.062478 0.446721 -0.255567
v -0.045342 0.276780 -0.102589
v -0.098816 0.310522 -0.065006
v -0.109325 0.475756 -0.224755
v -0.167581 0.314907 -0.071110
v -0.222436 0.283780 -0.124875
v -0.157460 0.452617 -0.265291
v -0.181788 0.230272 -0.191715
v -0.121552 0.426599 -0.295526
v -0.103683 0.227083 -0.189617
v -0.079282 0.428321 -0.285869
v 0.005931 0.241023 -0.071984
v -0.029126 0.279736 -0.026615
v -0.093821 0.305016 0.002885
v -0.166870 0.313496 -0.002293
v -0.250946 0.292392 -0.044860
v -0.279996 0.256770 -0.103461
v -0.261536 0.205025 -0.169261
v -0.190187 0.164885 -0.211483
v -0.091766 0.156736 -0.205156
v -0.003034 0.181734 -0.140120
v -0.024528 0.199245 -0.158715
v 0.057407 0.161467 -0.042633
v -0.002785 0.240867 0.058172
v -0.108212 0.275301 0.089059
v -0.224249 0.278834 0.071506
v -0.312237 0.242457 0.007504
v -0.346758 0.185830 -0.078860
v -0.285996 0.102099 -0.181101
v -0.139430 0.064645 -0.211438
v 0.003101 0.085458 -0.154213
v 0.051620 0.160735 0.025047
v 0.060222 0.138451 -0.004264
v 0.049510 0.140327 -0.007301
v 0.043485 0.161296 0.021420
v 0.038799 0.142204 -0.010338
v 0.031099 0.162150 0.015897
v 0.035339 0.182252 0.051937
v 0.025933 0.181830 0.045951
v 0.016527 0.181409 0.039965
v 0.012005 0.202175 0.075372
v 0.003824 0.200707 0.068156
v -0.004358 0.199240 0.060941
v -0.017485 0.219737 0.094452
v -0.024119 0.217348 0.086235
v -0.030753 0.214959 0.078018
v -0.051998 0.234264 0.108443
v -0.056821 0.231113 0.099492
v -0.061644 0.227962 0.090541
v -0.090208 0.245198 0.116809
v -0.093026 0.241473 0.107419
v -0.095844 0.237748 0.098029
v -0.130646 0.252118 0.119226
v -0.131342 0.248030 0.109709
v -0.132038 0.243942 0.100192
v -0.171758 0.254758 0.115603
v -0.170297 0.250532 0.106276
v -0.168836 0.246305 0.096949
v -0.211965 0.253018 0.106079
v -0.209134 0.249739 0.099080
v -0.204823 0.244747 0.088425
v -0.249721 0.246963 0.091019
v -0.244169 0.243146 0.082982
v -0.238617 0.239328 0.074945
v -0.283576 0.236827 0.071002
v -0.276247 0.233542 0.064016
v -0.268918 0.230256 0.057030
v -0.312227 0.223000 0.046799
v -0.303395 0.220440 0.041082
v -0.294563 0.217879 0.035366
v -0.334575 0.206011 0.019338
v -0.324570 0.204343 0.015062
v -0.314566 0.202674 0.010787
v -0.349761 0.186515 -0.010325
v -0.338959 0.185870 -0.013044
v -0.328157 0.185224 -0.015763
v -0.357200 0.165261 -0.041050
v -0.346008 0.165731 -0.042156
v -0.334816 0.166200 -0.043263
v -0.356607 0.143065 -0.071656
v -0.345446 0.144699 -0.071157
v -0.334285 0.146334 -0.070657
v -0.348005 0.120780 -0.100967
v -0.339513 0.123003 -0.099352
v -0.326586 0.126388 -0.096892
v -0.331724 0.099263 -0.127857
v -0.321869 0.103196 -0.124409
v -0.312014 0.107129 -0.120960
v -0.308390 0.079341 -0.151292
v -0.299760 0.084319 -0.146614
v -0.291129 0.089297 -0.141936
v -0.278900 0.061779 -0.170372
v -0.271817 0.067678 -0.164693
v -0.264734 0.073578 -0.159013
v -0.244387 0.047252 -0.184363
v -0.239115 0.053914 -0.177950
v -0.233843 0.060576 -0.171536
v -0.206177 0.036318 -0.192729
v -0.202910 0.043554 -0.185876
v -0.199643 0.050790 -0.179024
v -0.165739 0.029398 -0.195146
v -0.164594 0.036997 -0.188167
v -0.163449 0.044596 -0.181187
v -0.124627 0.026757 -0.191523
v -0.125639 0.034495 -0.184734
v -0.126651 0.042232 -0.177944
v -0.084420 0.028498 -0.181999
v -0.086895 0.034560 -0.177012
v -0.090664 0.043790 -0.169420
v -0.046664 0.034552 -0.166939
v -0.051767 0.041881 -0.161440
v -0.056870 0.049209 -0.155940
v -0.012809 0.044688 -0.146923
v -0.019689 0.051485 -0.142474
v -0.026568 0.058281 -0.138025
v 0.015842 0.058516 -0.122719
v 0.007459 0.064587 -0.119540
v -0.000924 0.070658 -0.116361
v 0.038190 0.075504 -0.095258
v 0.028635 0.080684 -0.093520
v 0.019079 0.085863 -0.091782
v 0.053376 0.095000 -0.065595
v 0.043023 0.099157 -0.065414
v 0.032671 0.103313 -0.065232
v 0.060815 0.116255 -0.034870
v 0.050072 0.119296 -0.036301
v 0.039329 0.122337 -0.037732
v -0.020624 0.456381 -0.272434
v -0.034117 0.488342 -0.232767
v -0.076703 0.509925 -0.211157
v -0.140936 0.513733 -0.217316
v -0.189208 0.488242 -0.259416
v -0.187699 0.458268 -0.302254
v -0.155712 0.432689 -0.330853
v -0.113591 0.422136 -0.338724
v -0.053771 0.426038 -0.324857
v -0.050599 0.501183 -0.303461
v -0.085923 0.532893 -0.265838
v -0.151799 0.520062 -0.295246
v -0.107044 0.479831 -0.342989
v -0.342725 0.025110 -0.496808
v -0.341695 0.025110 -0.525882
v -0.334166 -0.025110 -0.599093
v -0.340664 0.025110 -0.554955
v -0.327298 0.025110 -0.611582
v -0.303141 0.025110 -0.664513
v -0.286132 0.025110 -0.688114
v -0.249876 -0.025110 -0.733529
v -0.269122 0.025110 -0.711715
v -0.226549 0.025110 -0.751372
v -0.177056 0.025110 -0.781963
v -0.150750 -0.025110 -0.794791
v -0.122547 0.025110 -0.802309
v -0.065115 0.025110 -0.811631
v -0.006969 0.025110 -0.809569
v -0.039994 -0.025110 -0.814470
v 0.049658 0.025110 -0.796203
v 0.140116 -0.025110 -0.752982
v 0.102589 0.025110 -0.772047
v 0.149791 0.025110 -0.738028
v 0.189449 0.025110 -0.695454
v 0.204744 0.025110 -0.670708
v 0.220039 0.025110 -0.645962
v 0.255167 -0.025110 -0.546734
v 0.240386 0.025110 -0.591453
v 0.249707 0.025110 -0.534021
v 0.247646 0.025110 -0.475875
v 0.240963 0.025110 -0.447561
v 0.234280 0.025110 -0.419248
v 0.210123 0.025110 -0.366316
v 0.183330 -0.025110 -0.320301
v 0.176104 0.025110 -0.319115
v 0.133531 0.025110 -0.279457
v 0.108784 0.025110 -0.264162
v 0.084038 0.025110 -0.248867
v 0.040700 -0.025110 -0.231107
v 0.029529 0.025110 -0.228520
v -0.027903 0.025110 -0.219198
v -0.086049 0.025110 -0.221260
v -0.142676 0.025110 -0.234626
v -0.206952 -0.025110 -0.259422
v -0.195607 0.025110 -0.258783
v -0.242809 0.025110 -0.292801
v -0.282467 0.025110 -0.335375
v -0.297762 0.025110 -0.360121
v -0.331032 -0.025110 -0.422177
v -0.313057 0.025110 -0.384867
v -0.282467 0.025110 -0.335375
v -0.282467 0.025110 -0.335375
v -0.313057 0.025110 -0.384867
v -0.333404 0.025110 -0.439377
v -0.057717 -0.025110 -0.217630
v -0.122547 0.025110 -0.802309
v -0.065115 0.025110 -0.811631
v 0.249707 0.025110 -0.534021
v 0.247646 0.025110 -0.475875
v -0.086049 0.025110 -0.221260
v -0.142676 0.025110 -0.234626
v -0.303141 0.025110 -0.664513
v -0.286132 0.025110 -0.688114
v -0.269122 0.025110 -0.711715
v 0.149791 0.025110 -0.738028
v 0.189449 0.025110 -0.695454
v 0.133531 0.025110 -0.279457
v 0.133531 0.025110 -0.279457
v 0.084038 0.025110 -0.248867
v -0.333404 0.025110 -0.439377
v -0.006969 0.025110 -0.809569
v 0.240963 0.025110 -0.447561
v 0.234280 0.025110 -0.419248
v -0.195607 0.025110 -0.258783
v -0.226549 0.025110 -0.751372
v 0.204744 0.025110 -0.670708
v 0.220039 0.025110 -0.645962
v 0.029529 0.025110 -0.228520
v -0.342725 0.025110 -0.496808
v -0.341695 0.025110 -0.525882
v -0.340664 0.025110 -0.554955
v 0.049658 0.025110 -0.796203
v 0.210123 0.025110 -0.366316
v -0.242809 0.025110 -0.292801
v -0.177056 0.025110 -0.781963
v 0.240386 0.025110 -0.591453
v -0.027903 0.025110 -0.219198
v -0.327298 0.025110 -0.611582
v 0.102589 0.025110 -0.772047
v 0.176104 0.025110 -0.319115
v -0.262638 0.025110 -0.314088
v 0.154818 0.025110 -0.299286
v 0.158039 0.030380 -0.335045
v 0.189297 0.030380 -0.378416
v 0.189297 0.030380 -0.378416
v 0.158039 0.030380 -0.335045
v -0.116376 0.030380 -0.779027
v -0.166462 0.030380 -0.760332
v -0.166462 0.030380 -0.760332
v -0.116376 0.030380 -0.779027
v 0.118920 0.030380 -0.298606
v 0.118920 0.030380 -0.298606
v -0.063606 0.030380 -0.787592
v -0.063606 0.030380 -0.787592
v 0.096182 0.030380 -0.284552
v 0.096182 0.030380 -0.284552
v 0.073444 0.030380 -0.270498
v 0.073444 0.030380 -0.270498
v -0.010178 0.030380 -0.785698
v -0.010178 0.030380 -0.785698
v 0.023358 0.030380 -0.251802
v 0.023358 0.030380 -0.251802
v 0.041854 0.030380 -0.773417
v 0.041854 0.030380 -0.773417
v -0.029413 0.030380 -0.243237
v -0.029413 0.030380 -0.243237
v 0.090490 0.030380 -0.751221
v 0.090490 0.030380 -0.751221
v -0.082840 0.030380 -0.245131
v -0.082840 0.030380 -0.245131
v 0.133861 0.030380 -0.719962
v 0.133861 0.030380 -0.719962
v -0.134872 0.030380 -0.257413
v -0.134872 0.030380 -0.257413
v 0.170300 0.030380 -0.680844
v 0.170300 0.030380 -0.680844
v -0.183508 0.030380 -0.279609
v -0.183508 0.030380 -0.279609
v 0.184354 0.030380 -0.658106
v 0.184354 0.030380 -0.658106
v 0.198408 0.030380 -0.635368
v 0.198408 0.030380 -0.635368
v -0.318687 0.030380 -0.498318
v -0.318687 0.030380 -0.498318
v -0.317740 0.030380 -0.525032
v -0.317740 0.030380 -0.525032
v -0.316792 0.030380 -0.551746
v -0.316792 0.030380 -0.551746
v -0.226879 0.030380 -0.310867
v -0.226879 0.030380 -0.310867
v 0.217104 0.030380 -0.585282
v 0.217104 0.030380 -0.585282
v -0.304511 0.030380 -0.603778
v -0.304511 0.030380 -0.603778
v -0.245098 0.030380 -0.330426
v -0.245098 0.030380 -0.330426
v -0.263318 0.030380 -0.349986
v -0.263318 0.030380 -0.349986
v 0.225669 0.030380 -0.532511
v 0.225669 0.030380 -0.532511
v -0.282315 0.030380 -0.652413
v -0.282315 0.030380 -0.652413
v -0.291426 0.030380 -0.395462
v -0.291426 0.030380 -0.395462
v 0.223774 0.030380 -0.479083
v 0.223774 0.030380 -0.479083
v -0.266686 0.030380 -0.674099
v -0.266686 0.030380 -0.674099
v -0.251057 0.030380 -0.695784
v -0.251057 0.030380 -0.695784
v -0.310122 0.030380 -0.445547
v -0.310122 0.030380 -0.445547
v 0.217634 0.030380 -0.453068
v 0.217634 0.030380 -0.453068
v 0.211493 0.030380 -0.427052
v 0.211493 0.030380 -0.427052
v -0.211938 0.030380 -0.732224
v -0.211938 0.030380 -0.732224
v -0.174576 0.157616 -0.661558
v -0.206633 0.158989 -0.404328
v 0.143119 0.157841 -0.490154
v -0.236127 0.157922 -0.540718
v 0.079858 0.158181 -0.367841
v -0.046895 0.156031 -0.707428
v -0.040590 0.160173 -0.323306
v 0.024665 0.156542 -0.692382
v 0.114961 0.157601 -0.623533
v -0.120502 0.159647 -0.339412
v -0.172004 0.272197 -0.506588
v -0.149887 0.271683 -0.591001
v -0.088917 0.271695 -0.632946
v -0.079882 0.200608 -0.732385
v -0.028910 0.270471 -0.640493
v 0.039319 0.199480 -0.718915
v 0.024878 0.271702 -0.617963
v 0.117343 0.194788 -0.669116
v 0.069961 0.271362 -0.567134
v 0.175557 0.198172 -0.554759
v 0.059906 0.273045 -0.446070
v 0.168194 0.193841 -0.459491
v 0.134981 0.194584 -0.386355
v -0.033680 0.274253 -0.389725
v -0.133462 0.277828 -0.433019
v -0.269578 0.195919 -0.537288
v -0.238172 0.195508 -0.630828
v -0.164338 0.194373 -0.706628
v -0.025681 0.197839 -0.737402
v 0.068796 0.192199 -0.325711
v -0.015813 0.189617 -0.296211
v -0.076287 0.187337 -0.298213
v -0.133655 0.189147 -0.312113
v -0.207445 0.191735 -0.362654
v -0.255557 0.194301 -0.438716
v -0.346817 0.048233 -0.519537
v -0.322102 0.091523 -0.561659
v -0.289861 0.047414 -0.692770
v -0.269430 0.091940 -0.680601
v -0.196104 0.078791 -0.764581
v -0.109212 0.053276 -0.810844
v -0.082170 0.092296 -0.790067
v 0.020582 0.063507 -0.804468
v 0.010814 0.091942 -0.785887
v 0.116580 0.081951 -0.752989
v 0.201348 0.046706 -0.687971
v 0.186922 0.091942 -0.665352
v 0.241972 0.073583 -0.567433
v 0.225321 0.092194 -0.458502
v 0.198918 0.068628 -0.350283
v 0.107821 0.050948 -0.258865
v 0.124453 0.091919 -0.294583
v 0.001014 0.071466 -0.224984
v -0.162661 0.092026 -0.257885
v -0.183370 0.051476 -0.248339
v -0.255354 0.050321 -0.299683
v -0.316234 0.071245 -0.390133
v -0.337318 0.045473 -0.593254
v -0.234985 0.041868 -0.743736
v -0.047752 0.041453 -0.812543
v 0.077989 0.042982 -0.784058
v 0.244995 0.042235 -0.561407
v 0.244906 0.046389 -0.445884
v 0.188519 0.040831 -0.339874
v 0.058919 0.032452 -0.254877
v -0.010783 0.040954 -0.226801
v -0.084137 0.044312 -0.224945
v -0.148426 0.036662 -0.249926
v -0.238140 0.032572 -0.313246
v -0.319253 0.040689 -0.408179
v -0.342725 0.025110 -0.496808
v -0.330157 0.027757 -0.511511
v -0.341695 0.025110 -0.525882
v -0.328673 0.027757 -0.553343
v -0.340664 0.025110 -0.554955
v -0.327298 0.025110 -0.611582
v -0.315852 0.027757 -0.607662
v -0.303141 0.025110 -0.664513
v -0.284522 0.027757 -0.669755
v -0.286132 0.025110 -0.688114
v -0.260048 0.027757 -0.703713
v -0.269122 0.025110 -0.711715
v -0.226549 0.025110 -0.751372
v -0.219210 0.027757 -0.741755
v -0.177056 0.025110 -0.781963
v -0.171735 0.027757 -0.771098
v -0.122547 0.025110 -0.802309
v -0.119447 0.027757 -0.790615
v -0.065115 0.025110 -0.811631
v -0.064357 0.027757 -0.799557
v -0.006969 0.025110 -0.809569
v -0.008581 0.027757 -0.797579
v 0.049658 0.025110 -0.796203
v 0.045738 0.027757 -0.784758
v 0.102589 0.025110 -0.772047
v 0.096512 0.027757 -0.761586
v 0.149791 0.025110 -0.738028
v 0.141789 0.027757 -0.728954
v 0.189449 0.025110 -0.695454
v 0.179831 0.027757 -0.688116
v 0.201838 0.027757 -0.652509
v 0.204744 0.025110 -0.670708
v 0.220039 0.025110 -0.645962
v 0.240386 0.025110 -0.591453
v 0.228691 0.027757 -0.588353
v 0.249707 0.025110 -0.534021
v 0.237633 0.027757 -0.533263
v 0.247646 0.025110 -0.475875
v 0.235655 0.027757 -0.477486
v 0.226040 0.027757 -0.436747
v 0.240963 0.025110 -0.447561
v 0.234280 0.025110 -0.419248
v 0.210123 0.025110 -0.366316
v 0.199662 0.027757 -0.372394
v 0.176104 0.025110 -0.319115
v 0.167030 0.027757 -0.327116
v 0.128027 0.027095 -0.286670
v 0.154818 0.025110 -0.299286
v 0.133531 0.025110 -0.279457
v 0.090586 0.027757 -0.267068
v 0.084038 0.025110 -0.248867
v 0.029529 0.025110 -0.228520
v 0.026429 0.027757 -0.240214
v -0.027903 0.025110 -0.219198
v -0.028661 0.027757 -0.231273
v -0.086049 0.025110 -0.221260
v -0.084437 0.027757 -0.233250
v -0.142676 0.025110 -0.234626
v -0.138756 0.027757 -0.246071
v -0.195607 0.025110 -0.258783
v -0.189530 0.027757 -0.269243
v -0.242809 0.025110 -0.292801
v -0.244318 0.027757 -0.312085
v -0.262638 0.025110 -0.314088
v -0.272849 0.027757 -0.342714
v -0.282467 0.025110 -0.335375
v -0.313057 0.025110 -0.384867
v -0.302192 0.027757 -0.390189
v -0.333404 0.025110 -0.439377
v -0.321710 0.027757 -0.442476
v -0.120208 0.419663 -0.570294
v -0.059900 0.412419 -0.607490
v -0.001302 0.412392 -0.595695
v 0.038709 0.423362 -0.548041
v 0.041000 0.411370 -0.486783
v -0.069031 0.421928 -0.427568
v 0.002684 0.541816 -0.461187
v -0.054278 0.609787 -0.449441
v -0.098230 0.616896 -0.474114
v -0.137798 0.414709 -0.500260
v -0.109697 0.822549 -0.530422
v -0.100111 0.822464 -0.478835
v 0.019521 0.614578 -0.513313
v 0.018407 0.822553 -0.513412
v -0.084977 0.601038 -0.571063
v -0.112224 0.615912 -0.524296
v -0.065113 0.821292 -0.578796
v -0.004632 0.821445 -0.467630
v -0.055866 0.823625 -0.450521
v -0.007045 0.821793 -0.567336
v -0.002409 0.601698 -0.567505
v -0.047242 0.599791 -0.581879
v -0.154492 0.861217 -0.569726
v 0.056858 0.860418 -0.577572
v -0.063252 0.861183 -0.396569
v -0.113639 0.860999 -0.416561
v -0.165516 0.862926 -0.503858
v -0.108451 0.863484 -0.616921
v -0.057566 0.863797 -0.634416
v -0.002157 0.866814 -0.626243
v 0.072245 0.862168 -0.523839
v 0.065276 0.863070 -0.473033
v 0.013599 0.861138 -0.409317
v -0.147952 0.862183 -0.452313
v -0.102721 0.941326 -0.532543
v -0.038576 0.940919 -0.570118
v 0.012213 0.941348 -0.517876
v -0.040448 0.944049 -0.454743
v -0.078075 0.941343 -0.471487
v -0.012502 0.947488 -0.579085
v -0.114254 0.947299 -0.482575
v 0.023103 0.947503 -0.489629
v -0.087010 0.947603 -0.573430
v 0.006215 0.952901 -0.529239
v -0.076431 0.952995 -0.470813
v -0.102977 0.953102 -0.528110
v -0.017925 0.953577 -0.466053
v -0.038790 0.952925 -0.571020
v 0.006829 0.991667 -0.537320
v -0.102788 0.991468 -0.528053
v -0.010555 0.992468 -0.475495
v -0.049504 0.992000 -0.569433
v -0.061564 0.993271 -0.461969
v -0.133974 1.018924 -0.553844
v -0.141013 1.019424 -0.490401
v -0.007440 1.011224 -0.439361
v -0.071546 1.011653 -0.433672
v 0.038611 1.022287 -0.567492
v -0.095291 1.020870 -0.601467
v 0.049712 1.021806 -0.490649
v 0.005582 1.033820 -0.421353
v -0.022075 1.025161 -0.614388
v -0.051790 1.034002 -0.410032
v -0.104615 1.033676 -0.425343
v 0.092971 1.130902 -0.450952
v -0.071083 1.128811 -0.665384
v -0.039951 1.090881 -0.378406
v -0.120246 1.128734 -0.383026
v 0.096583 1.131840 -0.571279
v -0.183770 1.092332 -0.490366
v -0.165976 1.129417 -0.422101
v -0.169536 1.127080 -0.604805
v 0.032839 1.130009 -0.387287
v -0.052736 1.136216 -0.363760
v -0.012799 1.139832 -0.659797
v -0.198115 1.137756 -0.520862
v -0.124484 1.137857 -0.642113
v 0.035402 1.130476 -0.642759
v -0.104291 1.319034 -0.479589
v 0.016405 1.330182 -0.513912
v -0.093107 1.314418 -0.566684
v -0.004812 1.329287 -0.467904
v -0.054881 1.322062 -0.581366
v -0.055614 1.323526 -0.449554
v -0.013138 1.312250 -0.578218
v 0.008233 1.322915 -0.551335
v -0.112443 1.318993 -0.532119
v -0.050544 1.410965 -0.508705
v -0.046481 1.411030 -0.507608
v -0.045055 1.412404 -0.523054
v -0.035815 1.411825 -0.513835
v -0.052015 1.411631 -0.523120
v -0.052144 1.383435 -0.509658
v -0.031807 1.385466 -0.515115
v -0.016582 1.407772 -0.507496
v -0.047260 1.385941 -0.501584
v -0.028585 1.432273 -0.499923
v -0.039343 1.394026 -0.492866
v -0.057064 1.434418 -0.495747
v -0.049879 1.404968 -0.485128
v -0.056163 1.439559 -0.521064
v -0.070376 1.398488 -0.502030
v -0.076250 1.419684 -0.523136
v -0.064434 1.391216 -0.530907
v -0.053675 1.429463 -0.537965
v -0.043140 1.418522 -0.545702
v -0.042204 1.434751 -0.532070
v -0.022642 1.425001 -0.528801
v -0.035954 1.389072 -0.535083
v -0.042586 1.440694 -0.520086
vn 0.1761 0.7825 -0.5972
vn 0.1031 0.8062 -0.5826
vn 0.9157 -0.2623 0.3044
vn 0.1779 0.7912 -0.5851
vn 0.1769 0.8031 -0.5690
vn -0.1031 -0.8062 0.5826
vn 0.0927 0.8520 -0.5152
vn 0.0318 0.7938 -0.6073
vn 0.1415 0.7575 -0.6373
vn 0.1475 0.8372 -0.5267
vn 0.0354 0.8312 -0.5549
vn 0.0810 0.7584 -0.6467
vn 0.0764 0.8516 -0.5185
vn 0.0374 0.7852 -0.6181
vn 0.1517 0.7628 -0.6286
vn 0.1351 0.8438 -0.5194
vn 0.0295 0.8249 -0.5645
vn 0.0947 0.7560 -0.6477
vn 0.1738 0.8138 -0.5546
vn 0.0640 0.8493 -0.5240
vn 0.0468 0.7778 -0.6268
vn 0.1616 0.7692 -0.6182
vn 0.1245 0.8484 -0.5145
vn 0.0278 0.8164 -0.5768
vn 0.1129 0.7548 -0.6461
vn 0.1683 0.8222 -0.5437
vn 0.0539 0.8444 -0.5330
vn 0.0582 0.7703 -0.6350
vn 0.1703 0.7763 -0.6069
vn 0.1109 0.8509 -0.5136
vn 0.0288 0.8047 -0.5930
vn 0.1291 0.7551 -0.6427
vn 0.1588 0.8298 -0.5351
vn 0.0440 0.8382 -0.5435
vn 0.0705 0.7634 -0.6421
vn 0.1662 0.8488 -0.5019
vn 0.0312 0.7687 -0.6388
vn 0.0500 0.7607 -0.6471
vn 0.6293 -0.6251 0.4618
vn 0.5324 -0.4071 0.7422
vn 0.1937 0.8030 -0.5636
vn 0.1898 0.8119 -0.5521
vn 0.0960 0.7339 -0.6725
vn 0.1275 0.8570 -0.4993
vn 0.1065 0.8610 -0.4972
vn 0.1486 0.8573 -0.4929
vn 0.0608 0.7551 -0.6528
vn 0.1166 0.7323 -0.6710
vn 0.0910 0.8619 -0.4988
vn 0.1293 0.8637 -0.4872
vn 0.0780 0.7443 -0.6633
vn 0.1367 0.7334 -0.6659
vn 0.0717 0.8608 -0.5038
vn 0.1089 0.8677 -0.4850
vn 0.0982 0.7435 -0.6615
vn 0.1554 0.7372 -0.6576
vn 0.0573 0.8583 -0.5100
vn 0.0883 0.8692 -0.4865
vn 0.1123 0.7424 -0.6605
vn 0.1722 0.7434 -0.6463
vn 0.0405 0.8523 -0.5215
vn 0.0682 0.8682 -0.4916
vn 0.1343 0.7427 -0.6560
vn 0.1863 0.7519 -0.6324
vn 0.0299 0.8461 -0.5322
vn 0.0495 0.8646 -0.5001
vn 0.1483 0.7457 -0.6496
vn 0.1971 0.7623 -0.6164
vn 0.0191 0.8361 -0.5483
vn 0.0328 0.8586 -0.5116
vn 0.1654 0.7529 -0.6370
vn 0.2043 0.7742 -0.5990
vn 0.0135 0.8274 -0.5615
vn 0.0029 0.7894 -0.6139
vn 0.0187 0.8504 -0.5257
vn 0.1752 0.7588 -0.6273
vn 0.2077 0.7871 -0.5808
vn 0.0102 0.8143 -0.5804
vn 0.0115 0.7764 -0.6302
vn 0.1855 0.8253 -0.5333
vn 0.0079 0.8404 -0.5419
vn 0.1893 0.7664 -0.6138
vn 0.2069 0.8005 -0.5625
vn 0.0113 0.8042 -0.5942
vn 0.0236 0.7643 -0.6445
vn 0.1704 0.8352 -0.5228
vn 0.0007 0.8288 -0.5595
vn 0.1916 0.7795 -0.5963
vn 0.2021 0.8138 -0.5448
vn 0.0175 0.7905 -0.6122
vn 0.0387 0.7536 -0.6562
vn 0.1600 0.8425 -0.5144
vn -0.0026 0.8161 -0.5779
vn 0.1941 0.7883 -0.5839
vn 0.1935 0.8267 -0.5284
vn 0.0236 0.7815 -0.6235
vn 0.0563 0.7447 -0.6650
vn 0.1421 0.8521 -0.5038
vn -0.0018 0.8028 -0.5963
vn 0.1814 0.8385 -0.5139
vn 0.0756 0.7381 -0.6705
vn -0.7579 -0.4412 0.4805
vn 0.5256 -0.8301 0.1862
vn -0.7956 -0.5774 0.1832
vn 0.3105 -0.1966 0.9300
vn -0.6104 -0.7888 -0.0726
vn 0.0398 -0.1016 0.9940
vn -0.2321 -0.0810 0.9693
vn -0.2471 -0.9532 -0.1745
vn -0.4656 -0.1544 0.8714
vn 0.0881 -0.9754 -0.2022
vn -0.6832 -0.2252 0.6946
vn 0.3429 -0.9349 -0.0916
vn 0.9469 0.1090 -0.3025
vn 0.8120 0.5687 -0.1316
vn 0.9310 -0.0866 0.3545
vn 0.0288 -0.8061 0.5910
vn 0.3963 -0.6725 0.6250
vn 0.0775 -0.5836 0.8083
vn 0.7371 0.4725 0.4832
vn 0.4184 -0.0176 0.9081
vn 0.3838 0.7380 -0.5551
vn 0.4310 0.8752 -0.2195
vn 0.7060 0.5629 -0.4298
vn 0.1741 0.8444 -0.5066
vn -0.1273 -0.7183 0.6840
vn -0.1230 -0.8049 0.5806
vn 0.5501 -0.4829 0.6813
vn -0.0985 -0.2480 0.9637
vn 0.0791 0.9705 -0.2278
vn -0.0759 0.9699 0.2312
vn 0.2494 0.8638 0.4379
vn 0.0814 0.5288 0.8449
vn -0.4363 0.0814 0.8961
vn -0.4077 -0.4279 0.8066
vn -0.6605 0.4540 0.5980
vn -0.4355 -0.7040 0.5609
vn 0.0849 0.8170 -0.5703
vn -0.1515 0.9006 -0.4075
vn -0.8093 -0.3040 0.5027
vn -0.5199 0.8532 -0.0410
vn -0.9528 0.2742 -0.1306
vn -0.3024 0.6903 -0.6573
vn -0.6699 0.5015 -0.5474
vn -0.6614 -0.7481 0.0537
vn -0.8052 -0.4238 -0.4148
vn -0.2719 0.2148 -0.9381
vn -0.2909 -0.9017 0.3198
vn -0.2950 -0.3918 -0.8715
vn -0.0794 -0.8842 0.4604
vn -0.3701 -0.8731 -0.3173
vn -0.0244 0.7515 -0.6593
vn -0.0422 0.5056 -0.8617
vn 0.1574 0.7406 -0.6532
vn 0.1518 -0.8292 -0.5379
vn 0.0405 -0.9986 0.0330
vn 0.2393 0.0093 -0.9709
vn 0.3148 -0.2902 -0.9037
vn 0.2646 0.5422 -0.7975
vn 0.7324 -0.4993 -0.4630
vn 0.5054 0.3684 -0.7802
vn 0.6561 -0.7525 0.0573
vn 0.3375 -0.8908 0.3043
vn 0.7143 0.3158 -0.6246
vn 0.6237 -0.5441 0.5612
vn 0.8574 0.3641 0.3636
vn 0.7463 0.6486 -0.1493
vn 0.3271 0.9230 0.2025
vn 0.3673 0.6626 0.6527
vn -0.1031 -0.2674 0.9580
vn -0.1987 0.7084 0.6772
vn -0.6711 0.6456 0.3644
vn -0.2299 0.9623 0.1451
vn -0.6172 0.6978 -0.3634
vn -0.7211 -0.5438 0.4293
vn -0.9626 0.2273 -0.1475
vn -0.7116 -0.1450 -0.6875
vn -0.2926 -0.9416 -0.1665
vn -0.1951 -0.4211 -0.8858
vn 0.5457 0.1921 0.8157
vn 0.3413 -0.0739 -0.9370
vn 0.3304 -0.9434 -0.0277
vn 0.8124 0.5830 0.0142
vn 0.6266 0.7582 0.1805
vn 0.3401 0.8463 0.4100
vn -0.1510 0.9005 0.4077
vn -0.1471 0.9142 0.3775
vn -0.5690 0.8043 0.1712
vn -0.6564 0.6989 0.2841
vn -0.8002 0.5307 -0.2795
vn -0.3885 -0.0508 -0.9200
vn -0.2477 -0.0964 -0.9640
vn -0.0024 -0.2003 -0.9797
vn 0.3225 -0.1411 -0.9360
vn 0.6022 0.3841 -0.6998
vn 0.8690 -0.3918 -0.3022
vn 0.4678 -0.1280 -0.8745
vn 0.8539 0.1257 -0.5050
vn 0.8824 0.4521 -0.1300
vn 0.2823 0.7224 0.6312
vn -0.7683 0.5640 -0.3027
vn -0.7169 0.1274 -0.6855
vn -0.2848 0.2687 -0.9202
vn 0.7628 0.5328 -0.3664
vn 0.5518 0.8322 0.0546
vn -0.2011 0.9693 0.1418
vn -0.6204 0.6211 -0.4789
vn -0.3968 0.2717 -0.8768
vn 0.1022 0.1385 -0.9851
vn 0.5801 0.1945 -0.7910
vn 0.1838 0.9526 0.2425
vn -0.5380 0.8396 -0.0746
vn -0.6493 0.2626 -0.7137
vn 0.1510 0.8110 -0.5652
vn 0.1469 0.8172 -0.5573
vn 0.1533 0.8046 -0.5737
vn 0.1537 0.7981 -0.5826
vn 0.1410 0.8229 -0.5503
vn 0.1337 0.8280 -0.5446
vn 0.1253 0.8321 -0.5402
vn 0.1159 0.8353 -0.5375
vn 0.1061 0.8372 -0.5365
vn 0.0961 0.8380 -0.5372
vn 0.0864 0.8374 -0.5397
vn 0.0774 0.8357 -0.5437
vn 0.0693 0.8328 -0.5493
vn 0.0626 0.8288 -0.5561
vn 0.0573 0.8239 -0.5639
vn 0.0539 0.8182 -0.5723
vn 0.0523 0.8121 -0.5812
vn 0.0526 0.8057 -0.5900
vn 0.0549 0.7992 -0.5986
vn 0.0591 0.7929 -0.6064
vn 0.0649 0.7871 -0.6133
vn 0.0722 0.7820 -0.6190
vn 0.0807 0.7778 -0.6233
vn 0.0900 0.7746 -0.6260
vn 0.0998 0.7726 -0.6270
vn 0.1098 0.7718 -0.6263
vn 0.1195 0.7724 -0.6238
vn 0.1285 0.7742 -0.6198
vn 0.1366 0.7772 -0.6143
vn 0.1434 0.7812 -0.6075
vn 0.1486 0.7862 -0.5998
vn 0.1521 0.7919 -0.5914
vn 0.6737 -0.1121 0.7305
vn 0.2232 0.9722 0.0713
vn 0.2121 0.1690 0.9625
vn -0.4072 0.2027 0.8905
vn -0.4581 0.7990 -0.3895
vn -0.7994 -0.2364 0.5523
vn -0.9219 -0.3484 -0.1697
vn -0.5285 -0.7900 -0.3110
vn 0.0207 0.3057 -0.9519
vn -0.0731 -0.9026 -0.4242
vn 0.5379 -0.7060 -0.4607
vn 0.6787 0.5343 -0.5038
vn 0.7038 -0.6315 0.3255
vn 0.0268 0.8063 -0.5909
vn 0.0284 0.8042 -0.5937
vn -0.9932 -0.0909 -0.0726
vn 0.0262 0.8057 -0.5918
vn -0.8427 -0.1372 0.5207
vn 0.0322 0.7958 -0.6048
vn 0.0385 0.7863 -0.6166
vn 0.0436 0.7826 -0.6210
vn -0.7992 -0.0812 -0.5956
vn 0.0382 0.7863 -0.6167
vn 0.0417 -0.1100 -0.9931
vn -0.4829 -0.0524 -0.8741
vn 0.0823 0.7636 -0.6405
vn 0.0977 0.7646 -0.6371
vn 0.1357 0.7629 -0.6322
vn 0.7385 -0.1869 -0.6479
vn 0.1218 0.7679 -0.6289
vn 0.1527 0.7681 -0.6218
vn 0.1628 0.7728 -0.6134
vn 0.1666 0.7730 -0.6121
vn 0.1665 0.7729 -0.6122
vn 0.9949 -0.0414 0.0921
vn 0.1738 0.7844 -0.5953
vn 0.1764 0.7962 -0.5787
vn 0.1681 0.8234 -0.5420
vn 0.5654 -0.1315 0.8143
vn 0.1765 0.8107 -0.5582
vn 0.1622 0.8306 -0.5327
vn 0.0651 -0.8968 0.4376
vn 0.1604 0.8339 -0.5281
vn 0.1699 -0.0409 0.9846
vn 0.1405 0.8460 -0.5143
vn 0.0891 0.8735 -0.4787
vn -0.1419 -0.0814 0.9865
vn 0.1230 0.8563 -0.5016
vn -0.3066 -0.1005 0.9465
vn 0.0638 0.8630 -0.5012
vn 0.0519 0.8501 -0.5240
vn 0.0365 0.8395 -0.5421
vn 0.0280 0.8301 -0.5569
vn -0.0527 -0.6671 0.7431
vn 0.0289 0.8260 -0.5630
vn 0.0265 0.8168 -0.5763
vn -0.0000 -1.0000 -0.0000
vn 0.1781 0.8012 -0.5712
vn 0.1110 0.7766 -0.6201
vn 0.1801 0.7990 -0.5737
vn 0.0556 0.7733 -0.6316
vn 0.0653 0.7692 -0.6357
vn 0.1129 0.7543 -0.6468
vn 0.1136 0.8471 -0.5192
vn 0.1789 0.7748 -0.6063
vn 0.1876 0.7984 -0.5722
vn 0.0762 0.8456 -0.5284
vn 0.0799 0.7577 -0.6477
vn 0.0803 0.7568 -0.6487
vn 0.1105 0.8480 -0.5183
vn 0.1869 0.7997 -0.5705
vn 0.0812 0.8484 -0.5231
vn 0.1021 0.7452 -0.6590
vn 0.1657 0.7551 -0.6343
vn 0.1072 0.8481 -0.5188
vn 0.1662 0.7535 -0.6361
vn 0.1067 0.8491 -0.5174
vn 0.0876 0.8564 -0.5089
vn 0.1177 0.7279 -0.6755
vn 0.1042 0.8503 -0.5158
vn 0.1962 0.7556 -0.6250
vn 0.0994 0.8514 -0.5150
vn 0.1275 0.7394 -0.6611
vn 0.0978 0.8537 -0.5115
vn 0.2527 0.7434 -0.6193
vn 0.1073 0.8464 -0.5216
vn 0.1408 0.7523 -0.6436
vn 0.0893 0.8637 -0.4961
vn 0.2848 0.5864 -0.7583
vn 0.1125 0.8450 -0.5228
vn 0.1427 0.7545 -0.6406
vn 0.0847 0.8574 -0.5077
vn 0.0081 0.6599 -0.7513
vn 0.1161 0.8444 -0.5230
vn 0.1490 0.7561 -0.6372
vn 0.0808 0.8513 -0.5185
vn 0.0051 0.8106 -0.5855
vn 0.1488 0.7571 -0.6361
vn 0.1163 0.8439 -0.5238
vn 0.1595 0.7617 -0.6280
vn 0.1212 0.8434 -0.5235
vn 0.0679 0.8459 -0.5290
vn 0.0469 0.7702 -0.6361
vn 0.0686 0.8454 -0.5297
vn 0.0435 0.7725 -0.6335
vn 0.0675 0.8450 -0.5304
vn 0.0787 0.8495 -0.5217
vn 0.0080 0.8078 -0.5894
vn 0.1199 0.8441 -0.5226
vn 0.1596 0.7615 -0.6283
vn 0.0653 0.8439 -0.5324
vn 0.0575 0.7639 -0.6428
vn 0.0700 0.7513 -0.6563
vn 0.0789 0.8483 -0.5235
vn 0.0219 0.7896 -0.6132
vn 0.0754 0.8483 -0.5241
vn 0.1193 0.8445 -0.5221
vn 0.1704 0.7681 -0.6172
vn 0.0647 0.8436 -0.5330
vn 0.0580 0.7646 -0.6419
vn 0.0726 0.8474 -0.5260
vn 0.0221 0.7887 -0.6143
vn 0.1191 0.8449 -0.5215
vn 0.1708 0.7682 -0.6170
vn 0.0669 0.7609 -0.6454
vn 0.0679 0.8439 -0.5323
vn 0.0674 0.7601 -0.6463
vn 0.0679 0.8442 -0.5318
vn 0.0682 0.8461 -0.5287
vn 0.0369 0.7768 -0.6287
vn 0.1710 0.7674 -0.6180
vn 0.1181 0.8452 -0.5213
vn 0.1788 0.7750 -0.6062
vn 0.1189 0.8456 -0.5204
vn 0.0695 0.8442 -0.5315
vn 0.0726 0.7580 -0.6482
vn 0.0370 0.7770 -0.6285
vn 0.1185 0.8458 -0.5202
vn 0.0723 0.8446 -0.5305
vn -0.7865 0.6079 0.1088
vn -0.6329 0.6419 -0.4329
vn -0.9884 0.1197 -0.0937
vn -0.4100 0.4517 -0.7924
vn -0.2332 0.6904 -0.6848
vn -0.1113 0.6578 -0.7449
vn 0.1110 0.6935 -0.7118
vn 0.0870 0.7584 -0.6459
vn 0.2319 0.7258 -0.6476
vn 0.3898 0.7013 -0.5968
vn 0.6069 0.4853 -0.6294
vn 0.7218 0.6446 -0.2520
vn 0.9512 0.2783 -0.1332
vn 0.6418 0.6041 0.4724
vn 0.9636 0.1382 0.2288
vn 0.8041 -0.0853 0.5883
vn 0.4397 -0.2501 0.8626
vn 0.0468 0.7778 0.6267
vn 0.1709 -0.4978 0.8503
vn -0.1108 -0.6783 0.7264
vn -0.3220 -0.5928 0.7382
vn -0.5350 0.5574 0.6349
vn -0.9334 -0.1037 0.3435
vn -0.9883 0.1047 -0.1110
vn -0.8358 0.2612 -0.4830
vn -0.5182 0.4856 -0.7041
vn 0.0418 0.6883 -0.7242
vn 0.2394 0.6873 -0.6857
vn 0.6923 0.4961 -0.5239
vn 0.9818 0.1370 0.1318
vn -0.7697 -0.2679 0.5795
vn -0.6602 -0.2544 0.7067
vn -0.7305 0.6713 -0.1251
vn -0.8852 -0.3993 -0.2388
vn -0.9285 -0.3701 0.0316
vn -0.8098 -0.3152 -0.4948
vn -0.5980 0.6684 -0.4423
vn -0.1821 0.3413 -0.9221
vn -0.3966 0.5913 -0.7022
vn -0.0559 0.7242 -0.6874
vn 0.3720 0.6846 -0.6269
vn 0.6284 0.6643 -0.4048
vn 0.8190 -0.1690 -0.5483
vn 0.8353 0.5176 -0.1853
vn 0.7413 0.6444 0.1874
vn 0.8693 -0.4281 0.2469
vn 0.7912 0.3716 0.4857
vn 0.4352 0.6169 0.6558
vn 0.4468 -0.5096 0.7353
vn 0.1142 0.1846 0.9762
vn -0.3056 0.6863 0.6600
vn -0.0904 -0.7802 0.6190
vn -0.3357 -0.6471 0.6845
vn -0.6152 -0.4961 0.6127
vn -0.8266 0.3856 0.4099
vn 0.1236 0.7671 -0.6295
vn 0.5928 -0.2419 0.7682
vn -0.0399 -0.4076 0.9123
vn -0.2784 -0.4890 0.8267
vn 0.5653 -0.6654 0.4876
vn 0.1761 -0.8358 0.5201
vn -0.3274 -0.8538 0.4046
vn -0.1730 -0.7944 0.5822
vn -0.6360 -0.7061 0.3115
vn -0.5646 -0.3797 -0.7328
vn 0.0304 -0.4840 -0.8745
vn 0.1818 0.4991 -0.8473
vn 0.4401 -0.3213 -0.8385
vn 0.8400 -0.5359 -0.0843
vn 0.0428 -0.7569 0.6521
vn -0.2149 0.9766 -0.0058
vn 0.0720 0.8461 -0.5282
vn 0.0696 0.8444 -0.5312
vn -0.1748 0.9767 -0.1243
vn 0.1832 0.9768 -0.1109
vn 0.1157 0.8441 -0.5236
vn 0.2087 0.9766 0.0510
vn 0.1146 0.8459 -0.5210
vn 0.1298 0.9769 0.1698
vn 0.1107 0.8474 -0.5192
vn 0.1108 0.8470 -0.5199
vn 0.1074 0.8476 -0.5197
vn 0.1605 0.9769 0.1411
vn 0.1024 0.9750 0.1970
vn 0.1031 0.8478 -0.5202
vn -0.1504 0.9750 0.1637
vn 0.0833 0.8477 -0.5239
vn 0.0687 0.8451 -0.5302
vn 0.0683 0.8445 -0.5312
vn 0.0729 0.8466 -0.5273
vn 0.0696 0.8435 -0.5327
vn 0.0724 0.8435 -0.5323
vn 0.0765 0.8435 -0.5316
vn 0.0820 0.8433 -0.5312
vn 0.0890 0.8410 -0.5336
vn 0.0963 0.8316 -0.5470
vn 0.0979 0.8378 -0.5371
vn 0.1028 0.8428 -0.5283
vn 0.1085 0.8435 -0.5260
vn 0.1131 0.8436 -0.5250
vn 0.1166 0.8441 -0.5234
vn 0.1191 0.8441 -0.5227
vn 0.1181 0.8448 -0.5218
vn 0.1137 0.8463 -0.5204
vn 0.0997 0.8475 -0.5214
vn 0.0965 0.8446 -0.5266
vn 0.0966 0.8335 -0.5440
vn 0.0927 0.8408 -0.5334
vn 0.0872 0.8468 -0.5247
vn 0.0790 0.8477 -0.5246
vn 0.0757 0.8472 -0.5258
vn -0.9806 0.1850 0.0651
vn -0.7711 0.1848 -0.6093
vn 0.4659 0.1783 -0.8667
vn -0.9853 0.0833 -0.1492
vn -0.5645 0.0871 -0.8208
vn -0.1070 0.1694 -0.9797
vn 0.9933 0.1033 -0.0510
vn 0.8991 0.1821 -0.3981
vn 0.5878 0.0740 -0.8056
vn 0.6483 0.1750 0.7410
vn 0.9653 0.1938 0.1753
vn -0.7522 0.0760 0.6545
vn -0.1009 0.0891 0.9909
vn -0.4158 0.1421 0.8983
vn -0.7675 -0.5844 -0.2633
vn -0.1410 -0.6913 -0.7087
vn -0.6160 -0.6700 0.4143
vn 0.4790 -0.6775 0.5581
vn -0.1069 -0.6993 0.7067
vn -0.9652 -0.2333 0.1183
vn -0.8817 -0.1725 -0.4391
vn -0.5502 0.1247 -0.8257
vn -0.1140 0.4268 -0.8971
vn 0.4102 -0.6709 -0.6177
vn 0.8274 0.0449 -0.5598
vn 0.8147 -0.5789 -0.0327
vn 0.9852 -0.1667 -0.0394
vn 0.8816 -0.2144 0.4205
vn 0.2780 -0.5983 0.7515
vn -0.1012 -0.7798 0.6178
vn -0.3336 -0.6988 0.6327
vn -0.7800 -0.4005 0.4808
vn -0.6098 0.6171 -0.4973
vn 0.0879 -0.8402 -0.5351
vn 0.7486 0.4521 -0.4850
vn 0.1311 0.6290 0.7662
vn -0.5679 -0.1243 0.8136
vn 0.1241 0.7978 -0.5900
vn -0.4435 -0.7325 0.5164
vn -0.2157 0.7479 -0.6278
vn 0.0177 0.7232 -0.6904
vn 0.9791 0.1918 -0.0681
vn -0.2119 0.7460 0.6313
vn -0.9942 -0.0788 0.0731
vn 0.7326 -0.4575 0.5040
vn 0.2284 0.0062 0.9736
vn 0.6919 -0.5167 -0.5042
vn -0.1759 -0.7289 0.6616
vn -0.1147 -0.7970 0.5930
vn -0.5873 -0.7403 0.3272
vn -0.6881 -0.6540 -0.3144
vn -0.6707 -0.6768 -0.3033
vn -0.3752 -0.6737 -0.6367
vn 0.6712 -0.6886 0.2744
vn 0.6114 -0.6652 0.4285
vn -0.0140 -0.8541 -0.5199
vn 0.2066 -0.5392 -0.8165
vn 0.1200 -0.8030 0.5838
vn 0.3269 -0.6161 0.7166
vn -0.0453 -0.6527 0.7563
vn -0.3626 -0.6676 0.6502
vn 0.9211 -0.0032 0.3892
vn -0.0074 -0.4301 0.9028
vn 0.5441 0.0657 -0.8365
vn 0.6371 -0.6885 -0.3465
vn -0.4452 -0.2791 0.8509
vn -0.7747 -0.0806 0.6272
vn 0.9422 0.0063 -0.3351
vn -0.7713 0.0075 -0.6364
vn -0.1293 0.0716 -0.9890
vn 0.5359 -0.0649 0.8418
vn -0.0092 -0.1020 0.9947
vn 0.1991 0.3560 -0.9130
vn -0.9378 -0.3309 0.1053
vn -0.9993 -0.0250 0.0284
vn 0.8573 0.5142 0.0238
vn -0.8459 0.4941 -0.2007
vn -0.5861 0.4924 -0.6435
vn -0.7324 0.4977 0.4646
vn -0.6000 -0.0279 -0.7995
vn 0.0026 0.5459 -0.8378
vn 0.5589 0.5111 0.6529
vn 0.3643 0.4907 -0.7915
vn -0.1263 0.4603 0.8787
vn 0.7363 0.4738 -0.4831
vn 0.3043 0.5356 -0.7877
vn 0.1978 0.4407 0.8756
vn -0.7619 0.6467 -0.0366
vn 0.1491 -0.7693 -0.6213
vn 0.1104 -0.9789 -0.1721
vn -0.3875 0.9117 -0.1365
vn 0.1928 0.9109 -0.3647
vn 0.1025 0.8102 -0.5771
vn -0.0357 0.7246 -0.6883
vn 0.1357 0.4983 -0.8563
vn -0.9230 0.1971 -0.3305
vn 0.3883 -0.5451 -0.7430
vn -0.5521 -0.7748 -0.3080
vn 0.6763 0.5521 -0.4877
vn 0.8504 -0.3542 0.3891
vn 0.5601 0.7692 0.3076
vn -0.3990 0.5591 0.7267
vn -0.1276 -0.4326 0.8925
vn -0.6857 -0.5497 0.4772
vn -0.1104 -0.8052 0.5827
vn -0.1434 -0.9052 0.4000
vn -0.1252 0.3510 0.9280
vn -0.7415 0.2253 0.6320
vn -0.9764 -0.2123 0.0386
vn -0.6002 -0.6179 -0.5079
vn 0.0694 -0.7873 -0.6126
vn 0.6872 -0.6494 -0.3255
vn 0.2828 0.8132 -0.5086
vn 0.2916 0.7889 -0.5409
vn 0.0959 0.7982 -0.5947
vn 0.0813 0.8168 -0.5712
vn 0.2670 0.8365 -0.4786
vn 0.0943 0.7817 -0.6165
vn 0.2448 0.8577 -0.4520
vn 0.1017 0.7915 -0.6027
vn 0.2171 0.8763 -0.4301
vn 0.0946 0.7861 -0.6108
vn 0.1850 0.8915 -0.4135
vn 0.1023 0.7885 -0.6065
vn 0.1497 0.9028 -0.4031
vn 0.0959 0.7861 -0.6106
vn 0.1126 0.9100 -0.3991
vn -0.4570 0.6321 -0.6258
vn 0.0751 0.9126 -0.4018
vn 0.0442 0.7982 -0.6007
vn 0.0386 0.9108 -0.4111
vn 0.1612 0.8041 -0.5722
vn 0.0044 0.9045 -0.4266
vn 0.1220 0.7928 -0.5971
vn -0.0260 0.8938 -0.4476
vn 0.0898 0.7818 -0.6170
vn -0.0516 0.8793 -0.4735
vn 0.0836 0.7850 -0.6139
vn -0.0714 0.8612 -0.5032
vn 0.1204 0.8005 -0.5871
vn -0.0845 0.8404 -0.5354
vn 0.1398 0.8178 -0.5582
vn -0.0906 0.8174 -0.5690
vn 0.3620 0.5152 0.7769
vn -0.0892 0.7931 -0.6025
vn 0.1190 0.7946 -0.5954
vn -0.0805 0.7686 -0.6347
vn 0.1103 0.8139 -0.5704
vn -0.0648 0.7447 -0.6642
vn 0.1117 0.8291 -0.5478
vn -0.0427 0.7225 -0.6901
vn 0.1045 0.8203 -0.5622
vn -0.0151 0.7028 -0.7112
vn 0.1115 0.8252 -0.5537
vn 0.0169 0.6865 -0.7269
vn 0.1039 0.8231 -0.5583
vn 0.0520 0.6742 -0.7367
vn 0.1102 0.8252 -0.5539
vn 0.0891 0.6664 -0.7402
vn 0.6276 0.7014 -0.3380
vn 0.1266 0.6635 -0.7374
vn 0.1590 0.8107 -0.5635
vn 0.1631 0.6656 -0.7283
vn 0.0543 0.8057 -0.5898
vn 0.1973 0.6726 -0.7132
vn 0.0841 0.8189 -0.5678
vn 0.2279 0.6841 -0.6928
vn 0.1162 0.8289 -0.5471
vn 0.2536 0.6998 -0.6678
vn 0.1224 0.8259 -0.5504
vn 0.2735 0.7190 -0.6389
vn 0.0858 0.8115 -0.5780
vn 0.2868 0.7408 -0.6074
vn 0.0662 0.7928 -0.6059
vn 0.2929 0.7645 -0.5743
vn -0.3620 -0.5152 -0.7769
vn -0.2118 0.9769 -0.0290
vn -0.1968 0.9779 -0.0700
vn -0.1598 0.9769 -0.1419
vn -0.1291 0.9769 -0.1703
vn -0.0934 0.9769 -0.1922
vn -0.0542 0.9769 -0.2067
vn -0.0131 0.9769 -0.2133
vn 0.0285 0.9769 -0.2118
vn 0.0690 0.9769 -0.2023
vn 0.1070 0.9769 -0.1850
vn 0.1409 0.9769 -0.1607
vn 0.1695 0.9769 -0.1302
vn 0.2112 0.9756 -0.0601
vn 0.2133 0.9769 -0.0140
vn 0.2119 0.9769 0.0279
vn 0.1786 0.9787 0.1015
vn 0.0543 0.9786 0.1983
vn 0.0135 0.9769 0.2133
vn -0.0285 0.9769 0.2118
vn -0.0693 0.9769 0.2022
vn -0.1048 0.9786 0.1771
vn -0.1700 0.9769 0.1295
vn -0.1921 0.9769 0.0938
vn -0.1989 0.9787 0.0508
vn -0.0010 0.0368 -0.9993
vn 0.2920 0.5986 -0.7460
vn 0.2843 -0.9200 0.2699
vn 0.0448 -0.7358 0.6757
vt 0.062500 1.000000
vt 0.093750 1.000000
vt 0.011857 0.500000
vt 0.031250 1.000000
vt 0.000000 1.000000
vt 0.744152 0.487076
vt 0.907645 0.418376
vt 0.987076 0.255848
vt 0.918376 0.092355
vt 0.755848 0.012924
vt 0.592355 0.081624
vt 0.512923 0.244152
vt 0.581624 0.407645
vt 0.750000 1.000000
vt 0.781250 1.000000
vt 0.468750 1.000000
vt 0.500000 1.000000
vt 0.187500 1.000000
vt 0.218750 1.000000
vt 0.875000 1.000000
vt 0.906250 1.000000
vt 0.593750 1.000000
vt 0.625000 1.000000
vt 0.312500 1.000000
vt 0.343750 1.000000
vt 0.718750 1.000000
vt 0.437500 1.000000
vt 0.156250 1.000000
vt 0.843750 1.000000
vt 0.562500 1.000000
vt 0.281250 1.000000
vt 0.968750 1.000000
vt 1.000000 1.000000
vt 0.687500 1.000000
vt 0.406250 1.000000
vt 0.125000 1.000000
vt 0.812500 1.000000
vt 0.531250 1.000000
vt 0.250000 1.000000
vt 0.937500 1.000000
vt 0.656250 1.000000
vt 0.375000 1.000000
vt 0.940476 1.000000
vt 0.546581 1.000000
vt 0.094311 1.000000
vt 0.482896 1.000000
vt 0.859502 1.000000
vt 0.014805 1.000000
vt 0.405209 1.000000
vt 0.796581 1.000000
vt 0.732896 1.000000
vt 0.311930 1.000000
vt 0.672002 1.000000
vt 0.234432 1.000000
vt 0.609502 1.000000
vt 0.171889 1.000000
vt 0.810213 0.572681
vt 0.730622 0.656983
vt 0.735064 0.455835
vt 0.756930 0.069590
vt 0.742210 0.199845
vt 0.607807 0.137047
vt 0.646944 0.595899
vt 0.614677 0.313689
vt 0.768484 0.875000
vt 0.625207 0.846955
vt 0.769484 0.770994
vt 0.637840 0.937500
vt 0.500636 0.067370
vt 0.640625 0.000000
vt 0.680733 0.293419
vt 0.509035 0.226895
vt 0.489971 0.851715
vt 0.480074 0.694587
vt 0.577265 0.612929
vt 0.533341 0.463069
vt 0.445262 0.361809
vt 0.400868 0.201527
vt 0.397354 0.474559
vt 0.307386 0.150743
vt 0.285350 0.988690
vt 0.358357 0.857962
vt 0.161460 0.011471
vt 0.336592 0.299215
vt 0.357740 0.696117
vt 0.264028 0.528830
vt 0.238702 0.843142
vt 0.233727 0.697554
vt 0.172720 0.291922
vt 0.177176 0.499983
vt 0.102342 0.707439
vt 0.146239 0.138280
vt 0.072165 0.532709
vt 0.061024 0.070720
vt 0.095611 0.328946
vt 0.181878 0.930330
vt 0.044030 0.857423
vt 0.109375 1.000000
vt 0.029365 0.937500
vt 0.012999 0.345034
vt 0.015036 0.202750
vt 0.009237 0.708384
vt 0.000000 0.532223
vt 0.922503 0.937500
vt 0.934093 0.861262
vt 1.000000 0.875000
vt 0.967927 0.559089
vt 0.882094 0.529709
vt 0.977428 0.369255
vt 0.870488 0.779337
vt 0.972697 0.701661
vt 0.856924 0.345008
vt 0.968623 0.210620
vt 0.851195 0.200320
vt 0.965281 0.070720
vt 0.859375 0.000000
vt 0.796875 1.000000
vt 0.093821 1.000000
vt 0.033728 1.000000
vt 0.005508 1.000000
vt 0.963084 1.000000
vt 1.044882 1.000000
vt 0.827984 1.000000
vt 0.771319 1.000000
vt 0.764588 1.000000
vt 0.772519 1.000000
vt 0.664801 1.000000
vt 0.702984 1.000000
vt 0.546514 1.000000
vt 0.517518 1.000000
vt 0.564782 1.000000
vt 0.424751 1.000000
vt 0.312296 1.000000
vt 0.317692 1.000000
vt 0.880190 0.500000
vt 0.987183 0.500000
vt 0.202594 1.000000
vt 0.158686 1.000000
vt 0.954418 1.000000
vt 0.897702 1.000000
vt 0.829136 1.000000
vt 0.735145 1.000000
vt 0.729523 1.000000
vt 0.641391 1.000000
vt 0.625737 1.000000
vt 0.531712 1.000000
vt 0.359830 1.000000
vt 0.328845 1.000000
vt 0.281712 1.000000
vt 0.219256 1.000000
vt 0.108068 1.000000
vt 0.090925 1.000000
vt 0.188516 1.000000
vt 0.079136 1.000000
vt 0.974823 1.000000
vt 0.816005 1.000000
vt 0.529415 1.000000
vt 0.436281 1.000000
vt 0.360376 1.000000
vt 0.984509 1.000000
vt 0.891170 1.000000
vt 0.703656 1.000000
vt 0.515094 1.000000
vt 0.385643 1.000000
vt 0.265506 1.000000
vt 0.140446 1.000000
vt 0.022956 1.000000
vt 0.795050 1.000000
vt 0.609686 1.000000
vt 0.438516 1.000000
vt 0.970055 1.000000
vt 0.928640 1.000000
vt 0.817126 1.000000
vt 0.822689 1.000000
vt 0.707441 1.000000
vt 0.565735 1.000000
vt 0.570784 1.000000
vt 0.457357 1.000000
vt 0.365971 1.000000
vt 0.286564 1.000000
vt 0.279147 1.000000
vt 0.172824 1.000000
vt 0.047633 1.000000
vt 0.035679 1.000000
vt 0.984375 1.000000
vt 0.944572 0.500000
vt 1.000000 0.500000
vt 0.890625 1.000000
vt 0.858328 0.500000
vt 0.728891 0.500000
vt 0.794439 0.500000
vt 0.645069 0.500000
vt 0.578125 1.000000
vt 0.508405 0.500000
vt 0.374834 0.500000
vt 0.328125 1.000000
vt 0.286087 0.500000
vt 0.228621 0.500000
vt 0.164252 0.500000
vt 0.078125 1.000000
vt 0.041983 0.500000
vt 0.830930 0.473069
vt 0.935629 0.400303
vt 0.979625 0.315823
vt 0.762374 0.015041
vt 0.583269 0.083870
vt 0.516725 0.196210
vt 0.936076 0.105917
vt 0.687996 0.479285
vt 0.453125 1.000000
vt 0.359375 1.000000
vt 0.983817 1.000000
vt 0.885061 1.000000
vt 0.987535 1.000000
vt 0.825077 1.000000
vt 0.792551 1.000000
vt 0.761505 1.000000
vt 0.717606 1.000000
vt 0.720191 1.000000
vt 0.679085 1.000000
vt 0.646302 1.000000
vt 0.612991 1.000000
vt 0.560826 1.000000
vt 0.529288 1.000000
vt 0.393063 1.000000
vt 0.427934 1.000000
vt 0.390518 1.000000
vt 0.324818 1.000000
vt 0.241741 1.000000
vt 0.258907 1.000000
vt 0.179449 1.000000
vt 0.118431 1.000000
vt 0.047316 1.000000
vt 0.011367 1.000000
vt 0.969127 1.000000
vt 0.899964 1.000000
vt 0.847884 1.000000
vt 0.731249 1.000000
vt 0.683298 1.000000
vt 0.591946 1.000000
vt 0.469001 1.000000
vt 0.094257 1.000000
vt 0.113164 1.000000
vt 0.963717 1.000000
vt 0.950075 1.000000
vt 0.992141 1.000000
vt 0.895391 1.000000
vt 0.887626 1.000000
vt 0.768349 1.000000
vt 0.823846 1.000000
vt 0.756739 1.000000
vt 0.647354 1.000000
vt 0.582350 1.000000
vt 0.588892 1.000000
vt 0.519481 1.000000
vt 0.457526 1.000000
vt 0.449887 1.000000
vt 0.395792 1.000000
vt 0.341822 1.000000
vt 0.324601 1.000000
vt 0.262987 1.000000
vt 0.193423 1.000000
vt 0.152745 1.000000
vt 0.116266 1.000000
vt 0.000000 1.000000
vt 0.062856 1.000000
vt 0.709614 1.000000
vt 0.345505 1.000000
vt 0.235567 1.000000
vt 0.181381 1.000000
vt 0.387206 1.000000
vt 0.296360 1.000000
vt 0.120251 1.000000
vt 0.185154 1.000000
vt 0.050640 1.000000
vt 0.841945 1.000000
vt 0.725472 1.000000
vt 0.709913 1.000000
vt 0.674711 1.000000
vt 0.515066 1.000000
vt 0.254246 1.000000
vt 0.992188 1.000000
vt 0.898438 1.000000
vt 0.570312 1.000000
vt 0.445312 1.000000
vt 0.320312 1.000000
vt 0.117187 1.000000
vt 0.978453 1.000000
vt 0.858197 1.000000
vt 0.689652 1.000000
vt 0.953961 1.000000
vt 0.796038 1.000000
vt 0.735477 1.000000
vt 0.492032 1.000000
vt 0.589253 1.000000
vt 0.680445 1.000000
vt 0.373653 1.000000
vt 0.463096 1.000000
vt 0.094734 1.000000
vt 0.009134 1.000000
vt 0.159696 1.000000
vt 0.046663 1.000000
vt 0.952909 1.000000
vt 0.768244 1.000000
vt 0.006740 1.000000
vt 0.093497 1.000000
vt 0.346487 1.000000
vt 0.217811 1.000000
vt 0.992926 1.000000
vt 0.904575 1.000000
vt 0.825243 1.000000
vt 0.748325 1.000000
vt 0.648433 1.000000
vt 0.576378 1.000000
vt 0.485779 1.000000
vt 0.500291 1.000000
vt 0.430467 1.000000
vt 0.311116 1.000000
vt 0.215613 1.000000
vt 0.148094 1.000000
vt 0.080281 1.000000
vt 0.012978 1.000000
vt 0.924973 1.000000
vt 0.716204 1.000000
vt 0.504339 1.000000
vt 0.235765 1.000000
vt 0.155773 1.000000
vt 0.023820 1.000000
vt 0.707469 1.000000
vt 0.977450 1.000000
vt 0.824030 1.000000
vt 0.096632 1.000000
vt 0.737109 1.000000
vt 0.536444 1.000000
vt 0.160754 1.000000
vt 0.027849 1.000000
vt 0.428331 1.000000
vt 0.289785 1.000000
vt 0.570039 1.000000
vt 0.220875 1.000000
vt 0.207677 1.000000
vt 0.047769 1.000000
vt 0.937868 1.000000
vt 0.924329 1.000000
vt 0.785422 1.000000
vt 0.446485 1.000000
vt 0.350953 1.000000
vt 0.728617 1.000000
vt 0.704228 1.000000
vt 0.305130 1.000000
vt 0.993822 1.000000
vt 0.309083 1.000000
vt 0.224905 1.000000
vt 0.167135 1.000000
vt 0.418486 1.000000
vt 0.218830 1.000000
vt 0.645571 1.000000
vt 0.577847 1.000000
vt 0.155636 1.000000
vt 0.091172 1.000000
vt 0.554491 1.000000
vt 0.889999 1.000000
vt 0.756790 1.000000
vt 0.325929 1.000000
vt 0.213704 1.000000
vt 0.712938 1.000000
vt 0.031244 1.000000
vt 0.016118 1.000000
vt 0.433807 1.000000
vt 0.938121 1.000000
vt 0.848468 1.000000
vt 0.057219 1.000000
vt 0.825409 1.000000
vt 0.700007 1.000000
vt 0.371146 1.000000
vt 0.681379 1.000000
vt 0.034402 1.000000
vt 0.607280 1.000000
vt 0.431525 1.000000
vt 0.227310 1.000000
vt 0.173614 1.000000
vt 0.816100 1.000000
vt 0.722060 1.000000
vt 0.720882 0.830470
vt 0.640625 1.000000
vt 0.457492 0.797974
vt 0.482082 0.674752
vt 0.432461 0.624277
vt 0.683929 0.527731
vt 0.453119 0.240346
vt 0.635309 0.258209
vt 0.336358 0.671502
vt 0.198060 0.404032
vt 0.411198 0.889935
vt 0.135310 0.741787
vt 0.024263 0.789457
vt 0.025811 0.489313
vt 0.930296 0.376876
vt 0.836361 0.328507
vt 0.957362 0.202054
vt 0.882468 0.103420
vt 0.945924 0.759651
vt 0.753903 0.500000
vt 0.630190 0.500000
vt 0.503903 0.500000
vt 0.380190 0.500000
vt 0.253903 0.500000
vt 0.130190 0.500000
vt 0.000000 0.812500
vt 0.014435 1.000000
vt 0.007570 1.000000
vt 0.999180 1.000000
vt 0.968750 1.000000
vt 0.999485 1.000000
vt 0.906250 1.000000
vt 0.875000 1.000000
vt 0.843750 1.000000
vt 0.812500 1.000000
vt 0.750000 1.000000
vt 0.718750 1.000000
vt 0.562500 1.000000
vt 0.468750 1.000000
vt 0.375000 1.000000
vt 0.218750 1.000000
vt 0.187500 1.000000
vt 0.156250 1.000000
vt 0.093750 1.000000
vt 0.031250 1.000000
vt 0.000820 1.000000
vt 0.000515 1.000000
vt 0.993623 1.000000
vt 0.971827 1.000000
vt 0.510000 0.250000
vt 0.547274 0.370941
vt 0.986885 0.218373
vt -0.000000 1.000000
vt 0.768422 1.000000
vt 0.697179 1.000000
vt 0.027974 1.000000
vt 0.935319 1.000000
vt 0.985945 1.000000
vt 0.975993 1.000000
vt 1.001115 1.000000
vt 0.110733 0.170642
vt 0.003580 0.325244
vt 0.000000 0.203787
vt 0.032882 0.102363
vt 0.989177 0.980794
vt 0.977945 0.326543
s 1
usemtl Material.005
f 39/1/1 40/2/2 41/1/2
f 1/3/3 42/4/4 2/5/5
s 0
f 1/6/6 5/7/6 11/8/6
f 11/8/6 15/9/6 21/10/6
f 21/10/6 25/11/6 31/12/6
f 31/12/6 35/13/6 1/6/6
f 1/6/6 11/8/6 21/10/6
f 21/10/6 31/12/6 1/6/6
s 1
f 12/14/7 43/15/2 44/14/2
f 23/16/8 45/17/2 46/16/2
f 34/18/9 47/19/2 48/18/2
f 7/20/10 49/21/2 50/20/2
f 18/22/11 51/23/2 52/22/2
f 29/24/12 53/25/2 54/24/2
f 42/4/4 41/1/2 55/4/2
f 13/26/13 44/14/2 56/26/2
f 24/27/14 46/16/2 57/27/2
f 36/28/15 48/18/2 58/28/2
f 8/29/16 50/20/2 59/29/2
f 19/30/17 52/22/2 60/30/2
f 30/31/18 54/24/2 61/31/2
f 3/32/19 62/33/2 63/32/2
f 2/5/5 55/4/2 62/5/2
f 14/34/20 56/26/2 64/34/2
f 26/35/21 57/27/2 65/35/2
f 37/36/22 58/28/2 66/36/2
f 9/37/23 59/29/2 67/37/2
f 20/38/24 60/30/2 68/38/2
f 32/39/25 61/31/2 69/39/2
f 4/40/26 63/32/2 70/40/2
f 16/41/27 64/34/2 71/41/2
f 27/42/28 65/35/2 72/42/2
f 38/2/29 66/36/2 40/2/2
f 10/15/30 67/37/2 43/15/2
f 22/17/31 68/38/2 45/17/2
f 33/19/32 69/39/2 47/19/2
f 6/21/33 70/40/2 49/21/2
f 17/23/34 71/41/2 51/23/2
f 28/25/35 72/42/2 53/25/2
f 73/42/36 75/35/37 76/42/38
f 78/33/39 79/43/40 77/33/41
f 77/33/41 79/43/40 80/32/42
f 81/15/43 83/37/44 84/15/45
f 85/25/46 76/42/38 86/25/47
f 87/14/48 84/15/45 88/14/49
f 89/24/50 86/25/47 90/24/51
f 91/26/52 88/14/49 92/26/53
f 93/31/54 90/24/51 94/31/55
f 95/34/56 92/26/53 96/34/57
f 97/39/58 94/31/55 98/39/59
f 99/41/60 96/34/57 100/41/61
f 101/19/62 98/39/59 102/19/63
f 103/23/64 100/41/61 104/23/65
f 105/18/66 102/19/63 106/18/67
f 107/22/68 104/23/65 108/22/69
f 109/28/70 106/18/67 110/28/71
f 111/30/72 108/22/69 112/30/73
f 113/32/74 77/33/41 80/32/42
f 115/36/75 110/28/71 116/36/76
f 117/38/77 112/30/73 118/38/78
f 119/40/79 80/32/42 120/40/80
f 121/2/81 116/36/76 122/2/82
f 123/17/83 118/38/78 124/17/84
f 125/21/85 120/40/80 126/21/86
f 127/1/87 122/2/82 128/1/88
f 129/16/89 124/17/84 130/16/90
f 131/20/91 126/21/86 132/20/92
f 133/4/93 128/1/88 134/4/94
f 135/27/95 130/16/90 136/27/96
f 137/29/97 132/20/92 138/29/98
f 114/5/99 134/4/94 77/5/41
f 74/35/100 136/27/96 75/35/37
f 82/37/101 138/29/98 83/37/44
f 112/30/73 141/44/102 118/38/78
f 80/32/42 79/43/40 120/40/80
f 116/36/76 140/45/103 122/2/82
f 120/40/80 79/43/40 126/21/86
f 124/17/84 142/46/104 130/16/90
f 132/20/92 143/47/105 138/29/98
f 134/4/94 78/48/39 77/5/41
f 144/49/106 75/35/37 136/27/96
f 75/35/37 144/49/106 76/42/38
f 83/37/44 145/50/107 84/15/45
f 88/14/49 147/51/108 92/26/53
f 90/24/51 146/52/109 94/31/55
f 96/34/57 148/53/110 100/41/61
f 98/39/59 149/54/111 102/19/63
f 104/23/65 150/55/112 108/22/69
f 106/18/67 139/56/113 110/28/71
f 161/57/114 170/58/115 162/59/116
f 210/60/117 169/61/118 173/62/119
f 170/58/115 172/63/120 162/59/116
f 162/59/116 172/63/120 176/64/121
f 166/65/122 171/66/123 167/67/124
f 171/66/123 172/63/120 170/58/115
f 163/68/125 171/66/123 166/65/122
f 173/62/119 174/69/126 210/60/117
f 165/70/127 210/60/117 174/69/126
f 176/64/121 173/62/119 168/71/128
f 178/72/129 173/62/119 176/64/121
f 175/73/130 180/74/131 177/75/132
f 163/68/125 175/73/130 171/66/123
f 179/76/133 178/72/129 176/64/121
f 178/72/129 174/69/126 173/62/119
f 182/77/134 183/78/135 178/72/129
f 180/74/131 181/79/136 179/76/133
f 183/78/135 186/80/137 174/69/126
f 164/81/138 185/82/139 175/73/130
f 186/80/137 165/83/127 174/69/126
f 187/84/140 186/80/137 183/78/135
f 184/85/141 188/86/142 181/79/136
f 164/81/138 189/87/143 185/82/139
f 189/87/143 190/88/144 184/85/141
f 188/86/142 191/89/145 187/84/140
f 190/88/144 193/90/146 188/86/142
f 189/87/143 196/91/147 190/88/144
f 186/80/137 191/89/145 194/92/148
f 196/91/147 197/93/149 193/90/146
f 194/92/148 199/94/150 165/83/127
f 193/90/146 195/95/151 191/89/145
f 192/96/152 201/97/153 189/87/143
f 192/96/152 164/98/138 198/99/154
f 197/93/149 200/100/155 195/95/151
f 198/99/154 201/97/153 192/96/152
f 195/95/151 202/101/156 194/92/148
f 200/100/155 202/101/156 195/95/151
f 197/93/149 203/102/157 204/103/158
f 198/104/154 205/105/159 201/106/153
f 204/107/158 207/108/160 200/109/155
f 205/105/159 206/110/161 203/111/157
f 208/112/162 202/113/156 200/109/155
f 209/114/163 202/113/156 208/112/162
f 209/114/163 210/60/117 199/115/150
f 165/116/127 199/115/150 210/60/117
f 198/104/154 166/65/122 205/105/159
f 167/67/124 170/58/115 161/57/114
f 209/114/163 169/61/118 210/60/117
f 198/104/154 164/117/138 163/68/125
f 166/65/122 167/67/124 206/110/161
f 208/112/162 169/61/118 209/114/163
f 208/112/162 162/59/116 168/71/128
f 161/57/114 162/59/116 208/112/162
f 218/118/164 219/119/165 211/120/166
f 220/121/167 211/122/166 221/123/168
f 212/124/169 222/125/170 213/126/171
f 213/126/171 222/125/170 214/127/172
f 223/128/173 214/127/172 224/129/174
f 214/127/172 225/130/175 215/131/176
f 215/131/176 225/130/175 216/132/177
f 216/132/177 227/133/178 217/134/179
f 5/135/180 1/136/3 3/32/19 4/40/26
f 228/137/181 219/119/165 218/118/164
f 228/137/181 229/138/182 219/119/165
f 151/139/183 231/140/184 154/141/185
f 156/142/186 233/143/187 158/144/188
f 158/144/188 234/145/189 160/146/190
f 155/147/191 237/148/192 157/149/193
f 238/150/194 240/151/195 239/152/196
f 159/153/197 239/152/196 152/154/198
f 230/155/199 220/121/167 231/140/184
f 231/140/184 221/123/168 232/156/200
f 232/156/200 221/123/168 233/143/187
f 233/143/187 223/128/173 234/145/189
f 234/145/189 224/129/174 235/157/201
f 235/157/201 224/129/174 236/158/202
f 236/158/202 226/159/203 237/148/192
f 238/150/194 228/137/181 240/151/195
f 79/43/40 78/33/39 241/160/204
f 79/43/40 242/161/205 143/47/105
f 147/51/108 244/162/206 148/53/110
f 141/44/102 246/163/207 142/46/104
f 144/49/106 247/164/208 146/52/109
f 146/52/109 247/164/208 248/165/209
f 146/52/109 248/165/209 149/54/111
f 139/56/113 249/166/210 140/45/103
f 140/45/103 249/166/210 241/167/204
f 241/160/204 151/139/183 242/161/205
f 242/161/205 154/141/185 243/168/211
f 244/162/206 158/144/188 245/169/212
f 246/163/207 153/170/213 247/164/208
f 248/165/209 159/153/197 249/166/210
f 249/166/210 152/154/198 241/167/204
f 70/40/2 250/32/214 256/40/215
f 63/32/2 251/33/216 250/32/214
f 62/5/2 343/4/217 251/5/216
f 49/21/2 256/40/215 259/21/218
f 50/20/2 259/21/218 262/20/219
f 59/29/2 262/20/219 265/29/220
f 67/37/2 265/29/220 268/37/221
f 43/15/2 268/37/221 271/15/222
f 44/14/2 271/15/222 274/14/223
f 56/26/2 274/14/223 277/26/224
f 64/34/2 277/26/224 280/34/225
f 71/41/2 280/34/225 283/41/226
f 51/23/2 283/41/226 286/23/227
f 52/22/2 286/23/227 289/22/228
f 60/30/2 289/22/228 292/30/229
f 68/38/2 292/30/229 295/38/230
f 45/17/2 295/38/230 298/17/231
f 46/16/2 298/17/231 301/16/232
f 57/27/2 301/16/232 304/27/233
f 65/35/2 304/27/233 307/35/234
f 72/42/2 307/35/234 310/42/235
f 53/25/2 310/42/235 313/25/236
f 54/24/2 313/25/236 316/24/237
f 61/31/2 316/24/237 319/31/238
f 69/39/2 319/31/238 322/39/239
f 47/19/2 322/39/239 325/19/240
f 48/18/2 325/19/240 328/18/241
f 58/28/2 328/18/241 331/28/242
f 66/36/2 331/28/242 334/36/243
f 40/2/2 334/36/243 337/2/244
f 41/1/2 337/2/244 340/1/245
f 55/4/2 340/1/245 343/4/217
f 219/171/165 347/172/246 222/125/170
f 347/172/246 356/173/247 348/174/248
f 222/125/170 347/172/246 348/174/248
f 222/125/170 348/174/248 349/175/249
f 349/175/249 357/176/250 350/177/251
f 350/177/251 357/176/250 351/178/252
f 225/130/175 351/178/252 352/179/253
f 225/130/175 352/179/253 227/133/178
f 352/179/253 358/180/254 353/181/255
f 353/181/255 358/180/254 354/182/256
f 354/182/256 355/183/257 346/184/258
f 2/33/5 3/32/19 1/136/3
f 11/403/602 5/135/180 9/37/23 10/15/30
f 4/40/26 6/21/33 5/135/180
f 6/21/33 7/20/10 5/135/180
f 7/20/10 8/29/16 5/135/180
f 8/29/16 9/37/23 5/135/180
f 15/404/603 11/403/602 13/26/13 14/34/20
f 10/15/30 12/14/7 11/403/602
f 12/14/7 13/26/13 11/403/602
f 21/405/604 15/404/603 19/30/17 20/38/24
f 14/34/20 16/41/27 15/404/603
f 16/41/27 17/23/34 15/404/603
f 17/23/34 18/22/11 15/404/603
f 18/22/11 19/30/17 15/404/603
f 25/406/605 21/405/604 23/16/8 24/27/14
f 20/38/24 22/17/31 21/405/604
f 22/17/31 23/16/8 21/405/604
f 31/407/606 25/406/605 29/24/12 30/31/18
f 24/27/14 26/35/21 25/406/605
f 26/35/21 27/42/28 25/406/605
f 27/42/28 28/25/35 25/406/605
f 28/25/35 29/24/12 25/406/605
f 35/408/607 31/407/606 33/19/32 34/18/9
f 30/31/18 32/39/25 31/407/606
f 32/39/25 33/19/32 31/407/606
f 1/3/3 35/408/607 39/1/1 42/4/4
f 34/18/9 36/28/15 35/408/607
f 36/28/15 37/36/22 35/408/607
f 37/36/22 38/2/29 35/408/607
f 38/2/29 39/1/1 35/408/607
f 39/1/1 38/2/29 40/2/2
f 140/45/103 116/36/76 110/28/71 139/56/113
f 12/14/7 10/15/30 43/15/2
f 23/16/8 22/17/31 45/17/2
f 34/18/9 33/19/32 47/19/2
f 7/20/10 6/21/33 49/21/2
f 18/22/11 17/23/34 51/23/2
f 29/24/12 28/25/35 53/25/2
f 42/4/4 39/1/1 41/1/2
f 13/26/13 12/14/7 44/14/2
f 24/27/14 23/16/8 46/16/2
f 36/28/15 34/18/9 48/18/2
f 8/29/16 7/20/10 50/20/2
f 19/30/17 18/22/11 52/22/2
f 30/31/18 29/24/12 54/24/2
f 3/32/19 2/33/5 62/33/2
f 2/5/5 42/4/4 55/4/2
f 14/34/20 13/26/13 56/26/2
f 26/35/21 24/27/14 57/27/2
f 37/36/22 36/28/15 58/28/2
f 9/37/23 8/29/16 59/29/2
f 20/38/24 19/30/17 60/30/2
f 32/39/25 30/31/18 61/31/2
f 4/40/26 3/32/19 63/32/2
f 16/41/27 14/34/20 64/34/2
f 27/42/28 26/35/21 65/35/2
f 38/2/29 37/36/22 66/36/2
f 10/15/30 9/37/23 67/37/2
f 22/17/31 20/38/24 68/38/2
f 33/19/32 32/39/25 69/39/2
f 6/21/33 4/40/26 70/40/2
f 17/23/34 16/41/27 71/41/2
f 28/25/35 27/42/28 72/42/2
f 73/42/36 74/35/100 75/35/37
f 81/15/43 82/37/101 83/37/44
f 85/25/46 73/42/36 76/42/38
f 87/14/48 81/15/43 84/15/45
f 89/24/50 85/25/46 86/25/47
f 91/26/52 87/14/48 88/14/49
f 93/31/54 89/24/50 90/24/51
f 95/34/56 91/26/52 92/26/53
f 97/39/58 93/31/54 94/31/55
f 99/41/60 95/34/56 96/34/57
f 101/19/62 97/39/58 98/39/59
f 103/23/64 99/41/60 100/41/61
f 105/18/66 101/19/62 102/19/63
f 107/22/68 103/23/64 104/23/65
f 109/28/70 105/18/66 106/18/67
f 111/30/72 107/22/68 108/22/69
f 113/32/74 114/33/99 77/33/41
f 115/36/75 109/28/70 110/28/71
f 117/38/77 111/30/72 112/30/73
f 119/40/79 113/32/74 80/32/42
f 121/2/81 115/36/75 116/36/76
f 123/17/83 117/38/77 118/38/78
f 125/21/85 119/40/79 120/40/80
f 127/1/87 121/2/81 122/2/82
f 129/16/89 123/17/83 124/17/84
f 131/20/91 125/21/85 126/21/86
f 133/4/93 127/1/87 128/1/88
f 135/27/95 129/16/89 130/16/90
f 137/29/97 131/20/91 132/20/92
f 114/5/99 133/4/93 134/4/94
f 74/35/100 135/27/95 136/27/96
f 82/37/101 137/29/97 138/29/98
f 141/44/102 142/46/104 124/17/84 118/38/78
f 143/47/105 132/20/92 126/21/86 79/43/40
f 128/1/88 122/2/82 140/45/103
f 78/48/39 134/4/94 128/1/88 140/45/103
f 144/49/106 136/27/96 130/16/90 142/46/104
f 145/50/107 83/37/44 138/29/98 143/47/105
f 146/52/109 86/25/47 76/42/38 144/49/106
f 145/50/107 147/51/108 88/14/49 84/15/45
f 148/53/110 96/34/57 92/26/53 147/51/108
f 90/24/51 86/25/47 146/52/109
f 149/54/111 98/39/59 94/31/55 146/52/109
f 150/55/112 104/23/65 100/41/61 148/53/110
f 149/54/111 139/56/113 106/18/67 102/19/63
f 141/44/102 112/30/73 108/22/69 150/55/112
f 177/75/132 172/63/120 171/66/123 175/73/130
f 162/59/116 176/64/121 168/71/128
f 167/67/124 171/66/123 170/58/115
f 168/71/128 173/62/119 169/61/118
f 179/76/133 176/64/121 172/63/120 177/75/132
f 184/85/141 180/74/131 175/73/130 185/82/139
f 177/75/132 180/74/131 179/76/133
f 179/76/133 181/79/136 182/77/134
f 163/68/125 164/81/138 175/73/130
f 178/72/129 179/76/133 182/77/134
f 203/102/157 196/91/147 201/97/153 205/409/159
f 178/72/129 183/78/135 174/69/126
f 180/74/131 184/85/141 181/79/136
f 182/77/134 181/79/136 187/84/140
f 182/77/134 187/84/140 183/78/135
f 185/82/139 189/87/143 184/85/141
f 184/85/141 190/88/144 188/86/142
f 181/79/136 188/86/142 187/84/140
f 189/87/143 164/81/138 192/96/152
f 186/80/137 194/92/148 165/83/127
f 187/84/140 191/89/145 186/80/137
f 188/86/142 193/90/146 191/89/145
f 190/88/144 196/91/147 193/90/146
f 193/90/146 197/93/149 195/95/151
f 189/87/143 201/97/153 196/91/147
f 191/89/145 195/95/151 194/92/148
f 196/91/147 203/102/157 197/93/149
f 199/94/150 194/92/148 202/101/156
f 197/93/149 204/103/158 200/100/155
f 207/108/160 204/107/158 203/111/157 206/110/161
f 167/67/124 161/57/114 207/108/160 206/110/161
f 202/113/156 209/114/163 199/115/150
f 200/109/155 207/108/160 208/112/162
f 222/125/170 212/124/169 211/122/166 219/171/165
f 206/110/161 205/105/159 166/65/122
f 207/108/160 161/57/114 208/112/162
f 198/104/154 163/68/125 166/65/122
f 208/112/162 168/71/128 169/61/118
f 220/410/167 218/118/164 211/120/166
f 213/126/171 223/128/173 221/123/168 212/124/169
f 221/123/168 211/122/166 212/124/169
f 216/132/177 226/159/203 224/129/174 215/131/176
f 223/128/173 213/126/171 214/127/172
f 214/127/172 222/125/170 225/130/175
f 224/129/174 214/127/172 215/131/176
f 229/138/182 228/137/181 217/134/179 227/133/178
f 226/159/203 216/132/177 217/134/179
f 216/132/177 225/130/175 227/133/178
f 226/159/203 217/134/179 228/137/181
f 232/156/200 233/143/187 156/142/186 154/141/185
f 151/139/183 230/155/199 231/140/184
f 154/141/185 231/140/184 232/156/200
f 235/157/201 236/158/202 153/170/213 160/146/190
f 158/144/188 233/143/187 234/145/189
f 160/146/190 234/145/189 235/157/201
f 237/148/192 155/147/191 153/170/213 236/158/202
f 239/152/196 230/411/199 151/5/183 152/154/198
f 157/149/193 237/148/192 238/150/194
f 159/153/197 157/149/193 238/150/194
f 159/153/197 238/150/194 239/152/196
f 239/152/196 240/151/195 230/411/199
f 228/137/181 238/150/194 237/148/192 226/159/203
f 231/140/184 220/121/167 221/123/168
f 233/143/187 221/123/168 223/128/173
f 234/145/189 223/128/173 224/129/174
f 236/158/202 224/129/174 226/159/203
f 220/410/167 230/411/199 240/151/195 218/118/164
f 240/151/195 228/137/181 218/118/164
f 243/168/211 145/50/107 143/47/105 242/161/205
f 79/43/40 241/160/204 242/161/205
f 244/162/206 147/51/108 145/50/107 243/168/211
f 245/169/212 150/55/112 148/53/110 244/162/206
f 246/163/207 141/44/102 150/55/112 245/169/212
f 247/164/208 144/49/106 142/46/104 246/163/207
f 249/166/210 139/56/113 149/54/111 248/165/209
f 156/142/186 244/162/206 243/168/211 154/141/185
f 78/48/39 140/45/103 241/167/204
f 241/167/204 152/154/198 151/5/183
f 242/161/205 151/139/183 154/141/185
f 160/146/190 246/163/207 245/169/212 158/144/188
f 244/162/206 156/142/186 158/144/188
f 157/149/193 248/165/209 247/164/208 155/147/191
f 246/163/207 160/146/190 153/170/213
f 247/164/208 153/170/213 155/147/191
f 253/32/608 250/32/214 251/33/216 252/412/609
f 248/165/209 157/149/193 159/153/197
f 249/166/210 159/153/197 152/154/198
f 255/413/610 253/32/608 252/412/609 254/414/611
f 253/32/608 257/40/612 256/40/215 250/32/214
f 255/413/610 258/40/613 257/40/612 253/32/608
f 260/21/614 259/21/218 256/40/215 257/40/612
f 261/415/615 260/21/614 257/40/612 258/40/613
f 263/20/616 262/20/219 259/21/218 260/21/614
f 261/415/615 264/416/617 263/20/616 260/21/614
f 263/20/616 266/29/618 265/29/220 262/20/219
f 267/417/619 266/29/618 263/20/616 264/416/617
f 266/29/618 269/37/620 268/37/221 265/29/220
f 270/418/621 269/37/620 266/29/618 267/417/619
f 272/15/622 271/15/222 268/37/221 269/37/620
f 273/15/623 272/15/622 269/37/620 270/418/621
f 272/15/622 275/14/624 274/14/223 271/15/222
f 273/15/623 276/419/625 275/14/624 272/15/622
f 278/26/626 277/26/224 274/14/223 275/14/624
f 279/420/627 278/26/626 275/14/624 276/419/625
f 278/26/626 281/34/628 280/34/225 277/26/224
f 279/420/627 282/34/629 281/34/628 278/26/626
f 284/41/630 283/41/226 280/34/225 281/34/628
f 285/41/631 284/41/630 281/34/628 282/34/629
f 287/23/632 286/23/227 283/41/226 284/41/630
f 285/41/631 288/23/633 287/23/632 284/41/630
f 287/23/632 290/22/634 289/22/228 286/23/227
f 291/22/635 290/22/634 287/23/632 288/23/633
f 290/22/634 293/30/636 292/30/229 289/22/228
f 294/421/637 293/30/636 290/22/634 291/22/635
f 296/38/638 295/38/230 292/30/229 293/30/636
f 297/38/639 296/38/638 293/30/636 294/421/637
f 296/38/638 299/17/640 298/17/231 295/38/230
f 297/38/639 300/17/641 299/17/640 296/38/638
f 302/16/642 301/16/232 298/17/231 299/17/640
f 303/422/643 302/16/642 299/17/640 300/17/641
f 302/16/642 305/27/644 304/27/233 301/16/232
f 303/422/643 306/27/645 305/27/644 302/16/642
f 308/35/646 307/35/234 304/27/233 305/27/644
f 309/35/647 308/35/646 305/27/644 306/27/645
f 311/42/648 310/42/235 307/35/234 308/35/646
f 309/35/647 312/423/649 311/42/648 308/35/646
f 311/42/648 314/25/650 313/25/236 310/42/235
f 315/25/651 314/25/650 311/42/648 312/423/649
f 314/25/650 317/24/652 316/24/237 313/25/236
f 318/24/653 317/24/652 314/25/650 315/25/651
f 320/31/654 319/31/238 316/24/237 317/24/652
f 321/31/655 320/31/654 317/24/652 318/24/653
f 320/31/654 323/39/656 322/39/239 319/31/238
f 321/31/655 324/39/657 323/39/656 320/31/654
f 326/19/658 325/19/240 322/39/239 323/39/656
f 327/424/659 326/19/658 323/39/656 324/39/657
f 326/19/658 329/18/660 328/18/241 325/19/240
f 327/424/659 330/425/661 329/18/660 326/19/658
f 332/28/662 331/28/242 328/18/241 329/18/660
f 333/426/663 332/28/662 329/18/660 330/425/661
f 335/36/664 334/36/243 331/28/242 332/28/662
f 333/426/663 336/36/665 335/36/664 332/28/662
f 335/36/664 338/427/666 337/2/244 334/36/243
f 339/427/667 338/427/666 335/36/664 336/36/665
f 338/427/666 341/1/668 340/1/245 337/2/244
f 342/1/669 341/1/668 338/427/666 339/427/667
f 344/428/670 343/4/217 340/1/245 341/1/668
f 345/4/671 344/428/670 341/1/668 342/1/669
f 344/428/670 252/429/609 251/5/216 343/4/217
f 345/4/671 254/430/611 252/429/609 344/428/670
f 114/33/99 113/32/74 255/413/610 254/414/611
f 119/40/79 258/40/613 255/413/610 113/32/74
f 70/40/2 63/32/2 250/32/214
f 63/32/2 62/33/2 251/33/216
f 114/5/99 254/430/611 345/4/671 133/4/93
f 119/40/79 125/21/85 261/415/615 258/40/613
f 62/5/2 55/4/2 343/4/217
f 49/21/2 70/40/2 256/40/215
f 125/21/85 131/20/91 264/416/617 261/415/615
f 50/20/2 49/21/2 259/21/218
f 137/29/97 267/417/619 264/416/617 131/20/91
f 59/29/2 50/20/2 262/20/219
f 82/37/101 270/418/621 267/417/619 137/29/97
f 67/37/2 59/29/2 265/29/220
f 82/37/101 81/15/43 273/15/623 270/418/621
f 43/15/2 67/37/2 268/37/221
f 87/14/48 276/419/625 273/15/623 81/15/43
f 44/14/2 43/15/2 271/15/222
f 87/14/48 91/26/52 279/420/627 276/419/625
f 56/26/2 44/14/2 274/14/223
f 95/34/56 282/34/629 279/420/627 91/26/52
f 64/34/2 56/26/2 277/26/224
f 95/34/56 99/41/60 285/41/631 282/34/629
f 71/41/2 64/34/2 280/34/225
f 99/41/60 103/23/64 288/23/633 285/41/631
f 51/23/2 71/41/2 283/41/226
f 107/22/68 291/22/635 288/23/633 103/23/64
f 52/22/2 51/23/2 286/23/227
f 111/30/72 294/421/637 291/22/635 107/22/68
f 60/30/2 52/22/2 289/22/228
f 111/30/72 117/38/77 297/38/639 294/421/637
f 68/38/2 60/30/2 292/30/229
f 123/17/83 300/17/641 297/38/639 117/38/77
f 45/17/2 68/38/2 295/38/230
f 123/17/83 129/16/89 303/422/643 300/17/641
f 46/16/2 45/17/2 298/17/231
f 135/27/95 306/27/645 303/422/643 129/16/89
f 57/27/2 46/16/2 301/16/232
f 135/27/95 74/35/100 309/35/647 306/27/645
f 65/35/2 57/27/2 304/27/233
f 74/35/100 73/42/36 312/423/649 309/35/647
f 72/42/2 65/35/2 307/35/234
f 85/25/46 315/25/651 312/423/649 73/42/36
f 53/25/2 72/42/2 310/42/235
f 89/24/50 318/24/653 315/25/651 85/25/46
f 54/24/2 53/25/2 313/25/236
f 89/24/50 93/31/54 321/31/655 318/24/653
f 61/31/2 54/24/2 316/24/237
f 97/39/58 324/39/657 321/31/655 93/31/54
f 69/39/2 61/31/2 319/31/238
f 97/39/58 101/19/62 327/424/659 324/39/657
f 105/18/66 330/425/661 327/424/659 101/19/62
f 47/19/2 69/39/2 322/39/239
f 48/18/2 47/19/2 325/19/240
f 105/18/66 109/28/70 333/426/663 330/425/661
f 58/28/2 48/18/2 328/18/241
f 109/28/70 115/36/75 336/36/665 333/426/663
f 66/36/2 58/28/2 331/28/242
f 121/2/81 339/427/667 336/36/665 115/36/75
f 40/2/2 66/36/2 334/36/243
f 127/1/87 342/1/669 339/427/667 121/2/81
f 41/1/2 40/2/2 337/2/244
f 127/1/87 133/4/93 345/4/671 342/1/669
f 55/4/2 41/1/2 340/1/245
f 350/177/251 225/130/175 222/125/170 349/175/249
f 347/172/246 346/431/258 355/432/257
f 219/171/165 346/431/258 347/172/246
f 347/172/246 355/432/257 356/173/247
f 349/175/249 348/174/248 356/173/247
f 349/175/249 356/173/247 357/176/250
f 358/180/254 352/179/253 351/178/252 357/176/250
f 225/130/175 350/177/251 351/178/252
f 354/182/256 229/138/182 227/133/178 353/181/255
f 227/133/178 352/179/253 353/181/255
f 354/182/256 358/180/254 355/183/257
f 229/138/182 354/182/256 346/184/258
f 219/119/165 229/138/182 346/184/258
usemtl Whitepieces
f 360/185/259 362/32/260 361/186/261
f 359/33/262 361/186/261 404/187/263
f 361/186/261 362/32/260 363/40/264
f 365/188/265 367/20/266 366/189/267
f 364/21/268 366/189/267 361/186/261
f 374/190/269 370/191/270 371/15/271
f 374/190/269 371/15/271 372/14/272
f 377/41/273 376/192/274 375/34/275
f 376/192/274 377/41/273 378/23/276
f 379/22/277 376/192/274 378/23/276
f 376/192/274 379/22/277 380/193/278
f 376/192/274 381/30/279 382/194/280
f 383/38/281 382/194/280 381/30/279
f 382/194/280 383/38/281 384/17/282
f 390/42/283 389/195/284 388/35/285
f 391/25/286 389/195/284 390/42/283
f 389/195/284 391/25/286 392/196/287
f 389/195/284 393/24/288 394/197/289
f 395/31/290 394/197/289 393/24/288
f 397/19/291 410/198/292 396/39/293
f 399/199/294 398/18/295 400/28/296
f 401/36/297 399/199/294 400/28/296
f 399/199/294 401/36/297 402/2/298
f 403/200/299 405/1/300 404/201/263
f 402/2/298 404/201/263 399/199/294
f 405/1/300 406/2/2 407/2/2
f 403/200/299 402/2/298 406/2/2
f 405/1/300 407/2/2 408/1/2
f 404/201/263 405/1/300 409/4/301
s 0
f 361/202/302 366/203/302 370/204/302
f 382/205/302 389/206/302 394/207/302
f 370/204/302 376/208/302 361/202/302
f 382/205/302 394/207/302 404/209/302
s 1
f 372/14/272 411/15/2 412/14/2
f 385/16/303 413/17/2 414/16/2
f 398/18/295 415/19/2 416/18/2
f 364/21/268 418/188/2 365/188/265
f 365/188/265 419/20/2 367/20/266
f 379/22/277 420/23/2 421/22/2
f 393/24/288 422/25/2 423/25/2
f 392/196/287 391/25/286 422/25/2
f 393/24/288 423/25/2 424/24/2
f 409/4/301 408/1/2 425/4/2
f 373/26/304 412/14/2 426/26/2
f 385/16/303 427/210/2 386/210/305
f 386/210/305 428/27/2 387/27/305
f 400/28/296 416/18/2 429/28/2
f 368/29/306 419/20/2 430/29/2
f 379/22/277 431/193/2 380/193/278
f 380/193/278 432/30/2 381/30/279
f 395/31/290 424/24/2 433/31/2
f 359/33/262 435/185/2 360/185/259
f 360/185/259 436/32/2 362/32/260
f 359/5/262 425/4/2 434/5/2
f 375/34/275 426/26/2 437/34/2
f 388/35/285 428/27/2 438/35/2
f 401/36/297 429/28/2 439/36/2
f 369/37/307 430/29/2 440/37/2
f 383/38/281 432/30/2 441/38/2
f 396/39/293 433/31/2 442/39/2
f 363/40/264 436/32/2 443/40/2
f 377/41/273 437/34/2 444/41/2
f 390/42/283 438/35/2 445/42/2
f 439/36/2 406/2/2 402/2/298
f 446/98/2 407/2/2 406/2/2
f 439/36/2 402/2/298 401/36/297
f 371/15/271 440/37/2 411/15/2
f 384/17/282 441/38/2 413/17/2
f 397/19/291 442/39/2 415/19/2
f 364/21/268 443/40/2 417/21/2
f 378/23/276 444/41/2 420/23/2
f 445/42/2 422/25/2 391/25/286
f 447/211/308 423/25/2 422/25/2
f 445/42/2 391/25/286 390/42/283
f 448/42/309 450/35/310 451/42/311
f 452/15/312 454/37/313 455/15/314
f 456/25/315 451/42/311 457/25/316
f 458/14/317 455/15/314 459/14/318
f 456/25/315 460/196/319 461/196/320
f 461/196/320 462/24/321 463/24/322
f 464/26/323 459/14/318 465/26/324
f 466/31/325 462/24/321 467/31/326
f 468/34/327 465/26/324 469/34/328
f 470/39/329 467/31/326 471/39/330
f 472/41/331 469/34/328 473/41/332
f 474/19/333 471/39/330 475/19/334
f 476/23/335 473/41/332 477/23/336
f 478/18/337 475/19/334 479/18/338
f 480/22/339 477/23/336 481/22/340
f 482/28/341 479/18/338 483/28/342
f 480/22/339 484/193/343 485/193/344
f 485/193/344 486/30/345 487/30/346
f 488/33/347 490/185/348 491/185/349
f 491/185/349 492/32/350 493/32/351
f 494/36/352 483/28/342 495/36/353
f 496/38/354 486/30/345 497/38/355
f 498/40/356 492/32/350 499/40/357
f 494/36/352 500/98/358 501/98/359
f 501/98/359 502/2/360 503/2/361
f 504/17/362 497/38/355 505/17/363
f 506/21/364 499/40/357 507/21/365
f 508/1/366 502/2/360 509/1/367
f 510/16/368 505/17/363 511/16/369
f 506/21/364 512/188/370 513/188/371
f 513/188/371 514/20/372 515/20/373
f 516/4/374 509/1/367 517/4/375
f 510/16/368 518/210/376 519/210/377
f 519/210/377 520/27/378 521/27/379
f 522/29/380 514/20/372 523/29/381
f 488/5/347 517/4/375 489/5/382
f 449/35/383 520/27/378 450/35/310
f 453/37/384 523/29/381 454/37/313
f 534/212/385 535/213/386 549/214/387
f 551/215/388 535/213/386 536/216/389
f 537/217/390 536/216/389 538/218/391
f 552/219/392 538/218/391 539/220/393
f 540/221/394 539/220/393 538/218/391
f 539/220/393 540/221/394 541/222/395
f 541/222/395 542/223/396 543/224/397
f 543/224/397 544/225/398 545/226/399
f 546/227/400 544/225/398 553/228/401
f 553/228/401 547/229/402 554/230/403
f 554/230/403 547/229/402 555/19/404
f 556/231/405 547/229/402 548/232/406
f 558/233/407 548/232/406 534/234/385
f 537/217/390 552/219/392 551/215/388
f 527/235/408 549/214/387 550/236/409
f 524/237/410 550/236/409 551/215/388
f 529/238/411 551/215/388 552/219/392
f 531/239/412 541/222/395 532/240/413
f 532/240/413 543/224/397 526/241/414
f 525/242/415 557/243/416 558/233/407
f 560/244/417 581/245/418 559/246/419
f 581/245/418 560/244/417 561/247/420
f 561/247/420 560/244/417 562/248/421
f 564/249/422 563/250/423 565/251/424
f 568/252/425 570/253/426 569/254/427
f 571/255/428 569/254/427 570/253/426
f 571/255/428 572/256/429 586/257/430
f 573/258/431 586/257/430 572/256/429
f 573/258/431 575/259/432 574/260/433
f 576/261/434 577/262/435 590/19/436
f 578/263/437 577/262/435 579/264/438
f 559/265/419 580/266/439 560/5/417
f 567/267/440 531/239/412 568/252/425
f 568/252/425 532/240/413 570/253/426
f 570/253/426 532/240/413 571/255/428
f 571/255/428 526/241/414 572/256/429
f 573/258/431 528/268/441 575/259/432
f 576/261/434 530/269/442 577/262/435
f 577/262/435 530/269/442 533/270/443
f 587/271/444 574/260/433 588/272/445
f 579/264/438 592/273/446 578/263/437
f 578/263/437 592/273/446 591/274/447
f 581/245/418 492/32/350 490/185/348
f 580/266/439 559/265/419 593/275/448
f 561/247/420 512/188/370 507/21/365
f 561/247/420 514/20/372 512/188/370
f 582/276/449 561/247/420 563/250/423
f 583/277/450 564/249/422 566/278/451
f 583/277/450 566/278/451 584/279/452
f 469/34/328 584/279/452 473/41/332
f 584/279/452 568/252/425 569/254/427
f 477/23/336 569/254/427 481/22/340
f 481/22/340 569/254/427 484/193/343
f 484/193/343 569/254/427 486/30/345
f 569/254/427 571/255/428 585/280/453
f 497/38/355 585/280/453 505/17/363
f 511/16/369 586/257/430 518/210/376
f 518/210/376 586/257/430 520/27/378
f 586/257/430 573/258/431 587/271/444
f 450/35/310 587/271/444 451/42/311
f 588/272/445 460/196/319 457/25/316
f 588/272/445 462/24/321 460/196/319
f 574/260/433 576/261/434 589/281/454
f 591/274/447 590/19/436 578/263/437
f 479/18/338 591/274/447 483/28/342
f 495/36/353 592/273/446 500/98/358
f 500/98/358 592/273/446 502/2/360
f 595/282/455 596/185/349 594/33/456
f 601/21/457 602/283/458 603/188/371
f 624/284/459 626/30/460 625/193/344
f 634/210/377 633/285/461 635/27/462
f 640/25/463 641/211/464 638/42/465
f 640/25/463 642/25/466 641/211/464
f 640/25/463 638/42/465 639/42/467
f 642/25/466 643/286/468 644/24/469
f 656/287/470 657/98/359 655/36/471
f 443/40/2 598/32/472 599/40/473
f 434/33/2 596/185/349 435/185/2
f 435/185/2 598/32/472 436/32/2
f 434/5/2 662/4/474 594/5/456
f 417/21/2 599/40/473 601/21/457
f 417/21/2 603/188/371 418/188/2
f 418/188/2 605/20/475 419/20/2
f 430/29/2 605/20/475 606/29/476
f 440/37/2 606/29/476 608/37/477
f 411/15/2 608/37/477 610/15/478
f 412/14/2 610/15/478 612/14/479
f 426/26/2 612/14/479 614/26/480
f 437/34/2 614/26/480 616/34/481
f 444/41/2 616/34/481 618/41/482
f 420/23/2 618/41/482 620/23/483
f 421/22/2 620/23/483 622/22/484
f 421/22/2 625/193/344 431/193/2
f 431/193/2 626/30/460 432/30/2
f 441/38/2 626/30/460 627/38/485
f 413/17/2 627/38/485 629/17/486
f 414/16/2 629/17/486 631/16/487
f 414/16/2 634/210/377 427/210/2
f 427/210/2 635/27/462 428/27/2
f 438/35/2 635/27/462 636/35/488
f 445/42/2 636/35/488 638/42/465
f 445/42/2 641/211/464 447/211/308
f 447/211/308 642/25/466 423/25/2
f 424/24/2 642/25/466 644/24/469
f 433/31/2 644/24/469 645/31/489
f 442/39/2 645/31/489 647/39/490
f 415/19/2 647/39/490 649/19/491
f 416/18/2 649/19/491 651/18/492
f 429/28/2 651/18/492 653/28/493
f 439/36/2 653/28/493 655/36/471
f 439/36/2 657/98/359 446/98/2
f 446/98/2 659/2/494 407/2/2
f 408/1/2 659/2/494 660/1/495
f 425/4/2 660/1/495 662/4/474
f 535/213/386 534/212/385 673/288/496
f 535/213/386 673/288/496 664/289/497
f 538/218/391 666/290/498 540/221/394
f 679/291/499 664/289/497 673/288/496
f 678/292/500 665/293/501 664/289/497
f 676/294/502 667/295/503 684/296/504
f 670/297/505 668/298/506 676/294/502
f 672/299/507 673/300/496 548/232/406
f 668/298/506 670/297/505 544/225/398
f 544/225/398 670/297/505 547/229/402
f 547/229/402 671/301/508 669/302/509
f 678/292/500 674/303/510 680/304/511
f 679/305/499 675/306/512 674/5/510
f 681/307/513 682/308/514 671/301/508
f 672/299/507 682/308/514 675/306/512
f 676/294/502 681/307/513 670/297/505
f 674/303/510 690/309/515 686/310/516
f 680/304/511 686/310/516 691/311/517
f 680/304/511 691/311/517 692/312/518
f 683/313/519 687/314/520 677/315/521
f 687/314/520 694/316/522 677/315/521
f 677/315/521 695/317/523 681/307/513
f 681/307/513 696/318/524 682/308/514
f 682/308/514 696/318/524 688/319/525
f 675/306/512 689/320/526 697/321/527
f 675/306/512 697/321/527 690/322/515
f 691/311/517 698/323/528 699/324/529
f 687/314/520 700/325/530 694/316/522
f 694/316/522 700/325/530 695/317/523
f 695/317/523 700/325/530 696/318/524
f 696/318/524 701/326/531 688/319/525
f 688/319/525 701/326/531 702/327/532
f 697/321/527 702/327/532 698/328/528
f 699/324/529 703/329/533 700/325/530
f 698/323/528 704/330/534 706/331/535
f 702/327/532 704/332/534 698/328/528
f 699/324/529 706/331/535 703/329/533
f 703/329/533 711/333/536 707/334/537
f 704/332/534 708/335/538 709/336/539
f 706/331/535 711/333/536 703/329/533
f 705/337/540 710/338/541 701/326/531
f 701/326/531 710/338/541 708/335/538
f 707/334/537 712/339/542 710/338/541
f 711/333/536 712/339/542 707/334/537
f 716/340/543 720/341/544 718/342/545
f 713/343/546 717/344/547 722/345/548
f 712/339/542 723/346/549 714/347/550
f 715/348/551 722/345/548 725/349/552
f 716/340/543 719/350/553 720/341/544
f 715/348/551 725/349/552 712/339/542
f 713/343/546 718/351/545 717/344/547
f 723/346/549 724/352/554 719/350/553
f 720/341/544 726/353/555 727/354/556
f 723/346/549 728/355/557 724/352/554
f 724/352/554 730/356/558 726/353/555
f 725/349/552 741/357/559 721/358/560
f 727/354/556 731/359/561 734/360/562
f 721/358/560 732/361/563 723/346/549
f 722/345/548 735/362/564 729/363/565
f 736/364/566 737/365/567 730/356/558
f 729/363/565 738/366/568 741/357/559
f 733/367/569 734/360/562 739/368/570
f 732/361/563 743/369/571 728/355/557
f 735/362/564 750/370/572 744/371/573
f 739/368/570 742/372/574 750/5/572
f 740/373/575 744/371/573 746/374/576
f 728/355/557 745/375/577 736/364/566
f 738/366/568 748/376/578 741/357/559
f 731/359/561 747/377/579 742/372/574
f 749/378/580 754/379/581 743/369/571
f 743/369/571 752/380/582 745/375/577
f 745/375/577 752/380/582 747/377/579
f 748/376/578 754/379/581 749/378/580
f 747/377/579 752/380/582 751/381/583
f 755/382/584 753/383/585 754/379/581
f 757/384/586 756/385/587 759/386/588
f 761/387/589 763/388/590 758/389/591
f 763/388/590 762/390/592 760/391/593
f 761/387/589 759/386/588 763/388/590
f 762/390/592 765/392/594 766/393/595
f 765/392/594 756/394/587 767/395/596
f 765/392/594 767/395/596 766/393/595
f 767/395/596 756/394/587 772/396/597
f 766/393/595 767/395/596 769/397/598
f 769/398/598 771/399/599 770/400/600
f 771/399/599 773/401/601 770/400/600
f 772/402/597 771/399/599 769/398/598
f 370/191/270 366/189/267 368/29/306 369/37/307
f 359/33/262 360/185/259 361/186/261
f 363/40/264 364/21/268 361/186/261
f 364/21/268 365/188/265 366/189/267
f 367/20/266 368/29/306 366/189/267
f 375/34/275 376/192/274 374/190/269 373/26/304
f 369/37/307 371/15/271 370/191/270
f 372/14/272 373/26/304 374/190/269
f 387/27/305 389/195/284 382/194/280 386/210/305
f 376/192/274 380/193/278 381/30/279
f 382/194/280 384/17/282 385/16/303
f 382/194/280 385/16/303 386/210/305
f 396/39/293 410/198/292 394/197/289 395/31/290
f 389/195/284 387/27/305 388/35/285
f 389/195/284 392/196/287 393/24/288
f 399/199/294 410/198/292 397/19/291 398/18/295
s 0
f 394/207/302 410/433/302 399/434/302 404/209/302
s 1
f 402/2/298 403/200/299 404/201/263
f 405/1/300 403/200/299 406/2/2
f 409/4/301 359/5/262 404/201/263
s 0
f 376/208/302 370/204/302 374/435/302
f 361/202/302 376/208/302 382/205/302 404/209/302
s 1
f 558/233/407 549/436/387 527/5/408 525/242/415
f 372/14/272 371/15/271 411/15/2
f 385/16/303 384/17/282 413/17/2
f 398/18/295 397/19/291 415/19/2
f 364/21/268 417/21/2 418/188/2
f 365/188/265 418/188/2 419/20/2
f 379/22/277 378/23/276 420/23/2
f 393/24/288 392/196/287 422/25/2
f 409/4/301 405/1/300 408/1/2
f 373/26/304 372/14/272 412/14/2
f 385/16/303 414/16/2 427/210/2
f 386/210/305 427/210/2 428/27/2
f 400/28/296 398/18/295 416/18/2
f 368/29/306 367/20/266 419/20/2
f 379/22/277 421/22/2 431/193/2
f 380/193/278 431/193/2 432/30/2
f 395/31/290 393/24/288 424/24/2
f 359/33/262 434/33/2 435/185/2
f 360/185/259 435/185/2 436/32/2
f 359/5/262 409/4/301 425/4/2
f 375/34/275 373/26/304 426/26/2
f 388/35/285 387/27/305 428/27/2
f 401/36/297 400/28/296 429/28/2
f 369/37/307 368/29/306 430/29/2
f 383/38/281 381/30/279 432/30/2
f 396/39/293 395/31/290 433/31/2
f 363/40/264 362/32/260 436/32/2
f 377/41/273 375/34/275 437/34/2
f 390/42/283 388/35/285 438/35/2
f 439/36/2 446/98/2 406/2/2
f 371/15/271 369/37/307 440/37/2
f 384/17/282 383/38/281 441/38/2
f 397/19/291 396/39/293 442/39/2
f 364/21/268 363/40/264 443/40/2
f 378/23/276 377/41/273 444/41/2
f 445/42/2 447/211/308 422/25/2
f 448/42/309 449/35/383 450/35/310
f 452/15/312 453/37/384 454/37/313
f 456/25/315 448/42/309 451/42/311
f 458/14/317 452/15/312 455/15/314
f 456/25/315 457/25/316 460/196/319
f 461/196/320 460/196/319 462/24/321
f 464/26/323 458/14/317 459/14/318
f 466/31/325 463/24/322 462/24/321
f 468/34/327 464/26/323 465/26/324
f 470/39/329 466/31/325 467/31/326
f 472/41/331 468/34/327 469/34/328
f 474/19/333 470/39/329 471/39/330
f 476/23/335 472/41/331 473/41/332
f 478/18/337 474/19/333 475/19/334
f 480/22/339 476/23/335 477/23/336
f 482/28/341 478/18/337 479/18/338
f 480/22/339 481/22/340 484/193/343
f 485/193/344 484/193/343 486/30/345
f 488/33/347 489/33/382 490/185/348
f 491/185/349 490/185/348 492/32/350
f 494/36/352 482/28/341 483/28/342
f 496/38/354 487/30/346 486/30/345
f 498/40/356 493/32/351 492/32/350
f 494/36/352 495/36/353 500/98/358
f 501/98/359 500/98/358 502/2/360
f 504/17/362 496/38/354 497/38/355
f 506/21/364 498/40/356 499/40/357
f 508/1/366 503/2/361 502/2/360
f 510/16/368 504/17/362 505/17/363
f 506/21/364 507/21/365 512/188/370
f 513/188/371 512/188/370 514/20/372
f 516/4/374 508/1/366 509/1/367
f 510/16/368 511/16/369 518/210/376
f 519/210/377 518/210/376 520/27/378
f 522/29/380 515/20/373 514/20/372
f 488/5/347 516/4/374 517/4/375
f 449/35/383 521/27/379 520/27/378
f 453/37/384 522/29/380 523/29/381
f 549/436/387 558/233/407 534/234/385
f 550/236/409 549/214/387 535/213/386
f 551/215/388 550/236/409 535/213/386
f 537/217/390 551/215/388 536/216/389
f 552/219/392 537/217/390 538/218/391
f 541/222/395 540/221/394 542/223/396
f 543/224/397 542/223/396 544/225/398
f 544/225/398 546/227/400 545/226/399
f 553/228/401 544/225/398 547/229/402
f 556/231/405 555/19/404 547/229/402
f 557/243/416 556/231/405 548/232/406
f 558/233/407 557/243/416 548/232/406
f 539/220/393 531/239/412 529/238/411 552/219/392
f 524/237/410 527/235/408 550/236/409
f 529/238/411 524/237/410 551/215/388
f 546/227/400 528/268/441 526/241/414 545/226/399
f 531/239/412 539/220/393 541/222/395
f 532/240/413 541/222/395 543/224/397
f 526/241/414 543/224/397 545/226/399
f 554/230/403 530/269/442 528/268/441 553/228/401
f 528/268/441 546/227/400 553/228/401
f 555/19/404 556/231/405 533/270/443 530/269/442
f 530/269/442 554/230/403 555/19/404
f 556/231/405 557/243/416 525/242/415 533/270/443
f 565/251/424 567/267/440 566/278/451 564/249/422
f 563/250/423 561/247/420 562/248/421
f 525/242/415 527/5/408 560/5/417 580/266/439
f 566/278/451 567/267/440 568/252/425
f 574/260/433 575/259/432 576/261/434
f 578/263/437 590/19/436 577/262/435
f 580/266/439 579/264/438 577/262/435
f 527/235/408 524/237/410 562/248/421 560/244/417
f 524/237/410 529/238/411 565/251/424 563/250/423
f 563/250/423 562/248/421 524/237/410
f 528/268/441 573/258/431 572/256/429 526/241/414
f 567/267/440 565/251/424 529/238/411
f 567/267/440 529/238/411 531/239/412
f 568/252/425 531/239/412 532/240/413
f 571/255/428 532/240/413 526/241/414
f 530/269/442 576/261/434 575/259/432 528/268/441
f 490/185/348 489/33/382 559/246/419 581/245/418
f 533/270/443 525/242/415 577/262/435
f 580/266/439 577/262/435 525/242/415
f 583/277/450 582/276/449 564/249/422
f 588/272/445 574/260/433 589/281/454
f 593/275/448 592/273/446 579/264/438
f 499/40/357 492/32/350 581/245/418
f 593/275/448 559/265/419 489/5/382 517/4/375
f 581/245/418 561/247/420 507/21/365 499/40/357
f 561/247/420 582/276/449 523/29/381 514/20/372
f 582/276/449 583/277/450 455/15/314 454/37/313
f 454/37/313 523/29/381 582/276/449
f 564/249/422 582/276/449 563/250/423
f 584/279/452 469/34/328 465/26/324 583/277/450
f 459/14/318 455/15/314 583/277/450
f 465/26/324 459/14/318 583/277/450
f 569/254/427 477/23/336 473/41/332 584/279/452
f 584/279/452 566/278/451 568/252/425
f 585/280/453 497/38/355 486/30/345 569/254/427
f 586/257/430 511/16/369 505/17/363 585/280/453
f 587/271/444 450/35/310 520/27/378 586/257/430
f 585/280/453 571/255/428 586/257/430
f 587/271/444 588/272/445 457/25/316 451/42/311
f 588/272/445 589/281/454 471/39/330 467/31/326
f 587/271/444 573/258/431 574/260/433
f 467/31/326 462/24/321 588/272/445
f 589/281/454 590/19/436 475/19/334 471/39/330
f 591/274/447 479/18/338 475/19/334 590/19/436
f 589/281/454 576/261/434 590/19/436
f 592/273/446 495/36/353 483/28/342 591/274/447
f 593/275/448 509/1/367 502/2/360 592/273/446
f 598/32/472 596/185/349 595/282/455 597/32/672
f 593/275/448 579/264/438 580/266/439
f 517/4/375 509/1/367 593/275/448
f 597/32/672 600/40/673 599/40/473 598/32/472
f 600/40/673 602/283/458 601/21/457 599/40/473
f 604/20/674 605/20/475 603/188/371 602/283/458
f 607/29/675 606/29/476 605/20/475 604/20/674
f 609/37/676 608/37/477 606/29/476 607/29/675
f 611/15/677 610/15/478 608/37/477 609/37/676
f 613/14/678 612/14/479 610/15/478 611/15/677
f 615/26/679 614/26/480 612/14/479 613/14/678
f 615/26/679 617/34/680 616/34/481 614/26/480
f 617/34/680 619/41/681 618/41/482 616/34/481
f 619/41/681 621/23/682 620/23/483 618/41/482
f 621/23/682 623/22/683 622/22/484 620/23/483
f 625/193/344 622/22/484 623/22/683 624/284/459
f 624/284/459 628/38/684 627/38/485 626/30/460
f 628/38/684 630/17/685 629/17/486 627/38/485
f 632/16/686 631/16/487 629/17/486 630/17/685
f 633/285/461 634/210/377 631/16/487 632/16/686
f 637/35/687 636/35/488 635/27/462 633/285/461
f 639/42/467 638/42/465 636/35/488 637/35/687
f 646/31/688 645/31/489 644/24/469 643/286/468
f 642/25/466 640/25/463 643/286/468
f 648/39/689 647/39/490 645/31/489 646/31/688
f 650/19/690 649/19/491 647/39/490 648/39/689
f 650/19/690 652/18/691 651/18/492 649/19/491
f 652/18/691 654/28/692 653/28/493 651/18/492
f 654/28/692 656/287/470 655/36/471 653/28/493
f 659/2/494 657/98/359 656/287/470 658/2/693
f 658/2/693 661/1/694 660/1/495 659/2/494
f 661/1/694 663/4/695 662/4/474 660/1/495
f 663/4/695 595/5/455 594/5/456 662/4/474
f 597/32/672 595/282/455 491/185/349 493/32/351
f 488/33/347 491/185/349 595/282/455
f 493/32/351 498/40/356 600/40/673 597/32/672
f 443/40/2 436/32/2 598/32/472
f 434/33/2 594/33/456 596/185/349
f 435/185/2 596/185/349 598/32/472
f 516/4/374 488/5/347 595/5/455 663/4/695
f 498/40/356 506/21/364 602/283/458 600/40/673
f 434/5/2 425/4/2 662/4/474
f 417/21/2 443/40/2 599/40/473
f 515/20/373 604/20/674 602/283/458 513/188/371
f 417/21/2 601/21/457 603/188/371
f 418/188/2 603/188/371 605/20/475
f 602/283/458 506/21/364 513/188/371
f 522/29/380 607/29/675 604/20/674 515/20/373
f 430/29/2 419/20/2 605/20/475
f 453/37/384 609/37/676 607/29/675 522/29/380
f 440/37/2 430/29/2 606/29/476
f 452/15/312 611/15/677 609/37/676 453/37/384
f 411/15/2 440/37/2 608/37/477
f 458/14/317 613/14/678 611/15/677 452/15/312
f 412/14/2 411/15/2 610/15/478
f 464/26/323 615/26/679 613/14/678 458/14/317
f 426/26/2 412/14/2 612/14/479
f 464/26/323 468/34/327 617/34/680 615/26/679
f 437/34/2 426/26/2 614/26/480
f 468/34/327 472/41/331 619/41/681 617/34/680
f 444/41/2 437/34/2 616/34/481
f 472/41/331 476/23/335 621/23/682 619/41/681
f 420/23/2 444/41/2 618/41/482
f 476/23/335 480/22/339 623/22/683 621/23/682
f 421/22/2 420/23/2 620/23/483
f 624/284/459 623/22/683 480/22/339 485/193/344
f 421/22/2 622/22/484 625/193/344
f 431/193/2 625/193/344 626/30/460
f 487/30/346 496/38/354 628/38/684 624/284/459
f 485/193/344 487/30/346 624/284/459
f 441/38/2 432/30/2 626/30/460
f 496/38/354 504/17/362 630/17/685 628/38/684
f 413/17/2 441/38/2 627/38/485
f 510/16/368 632/16/686 630/17/685 504/17/362
f 414/16/2 413/17/2 629/17/486
f 519/210/377 633/285/461 632/16/686 510/16/368
f 414/16/2 631/16/487 634/210/377
f 427/210/2 634/210/377 635/27/462
f 449/35/383 637/35/687 633/285/461 521/27/379
f 633/285/461 519/210/377 521/27/379
f 438/35/2 428/27/2 635/27/462
f 448/42/309 639/42/467 637/35/687 449/35/383
f 445/42/2 438/35/2 636/35/488
f 456/25/315 640/25/463 639/42/467 448/42/309
f 445/42/2 638/42/465 641/211/464
f 447/211/308 641/211/464 642/25/466
f 461/196/320 643/286/468 640/25/463 456/25/315
f 424/24/2 423/25/2 642/25/466
f 466/31/325 646/31/688 643/286/468 463/24/322
f 643/286/468 461/196/320 463/24/322
f 433/31/2 424/24/2 644/24/469
f 470/39/329 648/39/689 646/31/688 466/31/325
f 442/39/2 433/31/2 645/31/489
f 474/19/333 650/19/690 648/39/689 470/39/329
f 474/19/333 478/18/337 652/18/691 650/19/690
f 415/19/2 442/39/2 647/39/490
f 416/18/2 415/19/2 649/19/491
f 478/18/337 482/28/341 654/28/692 652/18/691
f 429/28/2 416/18/2 651/18/492
f 482/28/341 494/36/352 656/287/470 654/28/692
f 439/36/2 429/28/2 653/28/493
f 658/2/693 656/287/470 501/98/359 503/2/361
f 439/36/2 655/36/471 657/98/359
f 446/98/2 657/98/359 659/2/494
f 494/36/352 501/98/359 656/287/470
f 503/2/361 508/1/366 661/1/694 658/2/693
f 408/1/2 407/2/2 659/2/494
f 508/1/366 516/4/374 663/4/695 661/1/694
f 425/4/2 408/1/2 660/1/495
f 664/289/497 665/293/501 536/216/389 535/213/386
f 667/295/503 542/223/396 540/221/394 666/290/498
f 538/218/391 536/216/389 665/293/501
f 538/218/391 665/293/501 666/290/498
f 668/298/506 544/225/398 542/223/396 667/295/503
f 665/293/501 685/437/696 684/296/504 666/290/498
f 548/232/406 547/229/402 669/302/509
f 534/234/385 548/232/406 673/300/496
f 679/291/499 678/292/500 664/289/497
f 678/292/500 685/437/696 665/293/501
f 548/232/406 669/302/509 671/301/508 672/299/507
f 684/296/504 667/295/503 666/290/498
f 676/294/502 668/298/506 667/295/503
f 677/315/521 676/294/502 684/296/504 683/313/519
f 672/299/507 679/305/499 673/300/496
f 547/229/402 670/297/505 671/301/508
f 678/292/500 679/291/499 674/303/510
f 679/305/499 672/299/507 675/306/512
f 676/294/502 677/315/521 681/307/513
f 672/299/507 671/301/508 682/308/514
f 683/313/519 684/296/504 685/437/696 680/304/511
f 670/297/505 681/307/513 671/301/508
f 685/437/696 678/292/500 680/304/511
f 693/438/697 683/313/519 680/304/511 692/312/518
f 674/5/510 675/306/512 690/322/515
f 680/304/511 674/303/510 686/310/516
f 700/325/530 687/314/520 693/438/697 699/324/529
f 683/313/519 693/438/697 687/314/520
f 677/315/521 694/316/522 695/317/523
f 681/307/513 695/317/523 696/318/524
f 682/308/514 688/319/525 689/320/526
f 675/306/512 682/308/514 689/320/526
f 686/310/516 690/309/515 698/323/528
f 691/311/517 686/310/516 698/323/528
f 692/312/518 691/311/517 699/324/529
f 693/438/697 692/312/518 699/324/529
f 716/340/543 713/439/546 709/336/539 708/335/538
f 696/318/524 700/325/530 701/326/531
f 689/320/526 688/319/525 702/327/532
f 697/321/527 689/320/526 702/327/532
f 690/322/515 697/321/527 698/328/528
f 702/327/532 701/326/531 704/332/534
f 700/325/530 703/329/533 705/337/540
f 699/324/529 698/323/528 706/331/535
f 701/326/531 700/325/530 705/337/540
f 704/332/534 701/326/531 708/335/538
f 705/337/540 703/329/533 707/334/537
f 706/331/535 704/330/534 709/440/539
f 705/337/540 707/334/537 710/338/541
f 706/331/535 709/440/539 711/333/536
f 713/343/546 715/348/551 711/333/536 709/440/539
f 710/338/541 712/339/542 714/347/550
f 726/353/555 720/341/544 719/350/553 724/352/554
f 710/338/541 714/347/550 716/340/543
f 711/333/536 715/348/551 712/339/542
f 708/335/538 710/338/541 716/340/543
f 712/339/542 721/358/560 723/346/549
f 713/439/546 716/340/543 718/342/545
f 715/348/551 713/343/546 722/345/548
f 714/347/550 723/346/549 719/350/553
f 716/340/543 714/347/550 719/350/553
f 712/339/542 725/349/552 721/358/560
f 730/356/558 731/359/561 727/354/556 726/353/555
f 718/342/545 720/341/544 727/354/556
f 724/352/554 728/355/557 736/364/566
f 725/349/552 722/345/548 729/363/565
f 724/352/554 736/364/566 730/356/558
f 725/349/552 729/363/565 741/357/559
f 733/441/569 735/362/564 717/344/547 718/351/545
f 721/358/560 741/357/559 732/361/563
f 734/360/562 733/367/569 718/342/545 727/354/556
f 747/377/579 737/365/567 736/364/566 745/375/577
f 723/346/549 732/361/563 728/355/557
f 722/345/548 717/344/547 735/362/564
f 731/359/561 730/356/558 737/365/567
f 735/362/564 733/441/569 739/442/570
f 729/363/565 735/362/564 740/373/575
f 734/360/562 731/359/561 742/372/574
f 735/362/564 739/442/570 750/370/572
f 739/368/570 734/360/562 742/372/574
f 740/373/575 735/362/564 744/371/573
f 728/355/557 743/369/571 745/375/577
f 729/363/565 740/373/575 746/374/576
f 738/366/568 729/363/565 746/374/576
f 749/378/580 732/361/563 741/357/559 748/376/578
f 738/366/568 746/374/576 748/376/578
f 751/443/583 755/382/584 744/371/573 750/370/572
f 731/359/561 737/365/567 747/377/579
f 732/361/563 749/378/580 743/369/571
f 742/372/574 747/377/579 751/381/583
f 754/379/581 748/376/578 746/374/576 755/382/584
f 743/369/571 754/379/581 752/380/582
f 750/5/572 742/372/574 751/381/583
f 746/374/576 744/371/573 755/382/584
f 771/399/599 758/389/591 760/391/593
f 757/384/586 759/386/588 761/387/589
f 757/384/586 761/387/589 758/389/591
f 760/391/593 762/390/592 773/401/601
f 758/389/591 763/388/590 760/391/593
f 763/388/590 759/386/588 765/392/594
f 773/401/601 762/390/592 764/444/698
f 762/390/592 763/388/590 765/392/594
f 765/392/594 759/386/588 756/394/587
f 764/444/698 762/390/592 766/393/595
f 764/444/698 766/393/595 768/445/699
f 768/445/699 766/393/595 769/397/598
f 764/444/698 770/446/600 773/447/601
f 764/444/698 768/445/699 770/446/600
f 769/397/598 767/395/596 772/396/597
f 772/402/597 756/448/587 757/384/586
f 768/449/699 769/398/598 770/400/600
f 772/402/597 758/389/591 771/399/599
f 771/399/599 760/391/593 773/401/601
f 772/402/597 757/384/586 758/389/591
